<svg xmlns="http://www.w3.org/2000/svg" viewBox="0 0 75.69 87.4"><defs><style>.cls-1{fill:#7dbcbc;}.cls-2{fill:#fff;}</style></defs><title>Ресурс 259</title><g id="Слой_2" data-name="Слой 2"><g id="Слой_1-2" data-name="Слой 1"><polygon class="cls-1" points="4.5 62.95 4.5 24.45 37.85 5.2 71.19 24.45 71.19 62.95 37.85 82.21 4.5 62.95"/><path class="cls-2" d="M37.85,10.39,66.69,27.05V60.36L37.85,77,9,60.36V27.05L37.85,10.39M37.85,0l-4.5,2.6L4.5,19.25,0,21.85v43.7l4.5,2.6L33.35,84.8l4.5,2.6,4.5-2.6L71.19,68.15l4.5-2.6V21.85l-4.5-2.6L42.35,2.6,37.85,0Z"/><polygon class="cls-2" points="20.28 34.66 20.28 28.4 24.07 26.44 30.33 30.55 30.33 54.88 34.24 54.88 34.24 59.96 20.28 59.96 20.28 54.88 24.59 54.88 24.59 32.31 20.28 34.66"/><polygon class="cls-2" points="53.89 28.46 36.95 28.46 36.95 45.66 42.26 47.43 48.08 43.95 49.97 45.41 49.97 53.25 48.83 54.77 36.95 50.21 36.95 55.91 49.21 60.96 55.41 55.02 55.41 42.25 48.31 37.38 42.64 41.36 42.64 33.52 53.89 33.52 53.89 28.46"/></g></g></svg>