<svg xmlns="http://www.w3.org/2000/svg" xmlns:xlink="http://www.w3.org/1999/xlink" viewBox="0 0 75.69 87.4"><defs><style>.cls-1{fill:url(#Безымянный_градиент_56);}.cls-2{fill:#fff;}</style><linearGradient id="Безымянный_градиент_56" x1="4.5" y1="43.7" x2="71.19" y2="43.7" gradientUnits="userSpaceOnUse"><stop offset="0" stop-color="#d6ad47"/><stop offset="1" stop-color="#bf7e30"/></linearGradient></defs><title>Ресурс 234</title><g id="Слой_2" data-name="Слой 2"><g id="Слой_1-2" data-name="Слой 1"><polygon class="cls-1" points="4.5 62.95 4.5 24.45 37.85 5.2 71.19 24.45 71.19 62.95 37.85 82.21 4.5 62.95"/><path class="cls-2" d="M37.85,10.39,66.69,27.05V60.36L37.85,77,9,60.36V27.05L37.85,10.39M37.85,0l-4.5,2.6L4.5,19.25,0,21.85v43.7l4.5,2.6L33.35,84.8l4.5,2.6,4.5-2.6L71.19,68.15l4.5-2.6V21.85l-4.5-2.6L42.35,2.6,37.85,0Z"/><polygon class="cls-2" points="17.27 32.45 17.27 27.6 36.13 27.6 36.13 35.59 27.88 40.04 36.13 42.79 36.13 54.32 27.36 61.26 17.27 56.94 17.27 51.04 26.7 54.97 30.37 52.09 30.37 46.46 21.46 42.92 21.46 37.03 31.02 32.71 17.27 32.45"/><path class="cls-2" d="M45.62,26.15,39.36,32v13.6l7.2,5.33,6.26-4.13L52.69,52,50,54.94l-8.8-2.53v6L51,61.07l7.46-7.33V30.94Zm7.2,14.26-5.73,3.87-2-1.09V33.74L46.69,32l6.13,2.8Z"/></g></g></svg>