<svg xmlns="http://www.w3.org/2000/svg" xmlns:xlink="http://www.w3.org/1999/xlink" viewBox="0 0 75.69 87.4"><defs><style>.cls-1{fill:url(#Безымянный_градиент_32);}.cls-2{fill:#fff;}</style><linearGradient id="Безымянный_градиент_32" x1="204.32" y1="152.22" x2="281.33" y2="152.22" gradientTransform="translate(190.06 -199.13) rotate(90)" gradientUnits="userSpaceOnUse"><stop offset="0" stop-color="#7dba80"/><stop offset="1" stop-color="#428956"/></linearGradient></defs><title>Ресурс 250</title><g id="Слой_2" data-name="Слой 2"><g id="Слой_1-2" data-name="Слой 1"><polygon class="cls-1" points="4.5 62.95 4.5 24.45 37.85 5.2 71.19 24.45 71.19 62.95 37.85 82.21 4.5 62.95"/><path class="cls-2" d="M37.85,10.39,66.69,27.05V60.36L37.85,77,9,60.36V27.05L37.85,10.39M37.85,0l-4.5,2.6L4.5,19.25,0,21.85v43.7l4.5,2.6L33.35,84.8l4.5,2.6,4.5-2.6L71.19,68.15l4.5-2.6V21.85l-4.5-2.6L42.35,2.6,37.85,0Z"/><polygon class="cls-2" points="17.4 38.45 17.4 32.55 27.59 26.39 36.57 32.42 36.57 42.87 22.76 53.6 23.97 55.61 36.57 55.61 36.57 60.57 20.35 60.57 15.93 52.52 30.94 40.73 30.94 35.63 26.92 32.82 17.4 38.45"/><polygon class="cls-2" points="44.42 46.33 44.42 49.24 51.7 49.24 51.7 40.37 57.25 40.37 57.25 49.24 59.77 49.24 59.77 54.4 57.25 54.4 57.25 61.02 51.56 61.02 51.56 54.27 38.86 54.27 38.86 44.15 51.03 27.94 58.44 27.94 44.42 46.33"/></g></g></svg>