<svg xmlns="http://www.w3.org/2000/svg" xmlns:xlink="http://www.w3.org/1999/xlink" viewBox="0 0 75.69 87.4"><defs><style>.cls-1{fill:url(#Безымянный_градиент_47);}.cls-2{fill:#fff;}</style><linearGradient id="Безымянный_градиент_47" x1="-263.4" y1="-314.35" x2="-186.39" y2="-314.35" gradientTransform="translate(-276.5 268.59) rotate(90)" gradientUnits="userSpaceOnUse"><stop offset="0" stop-color="#c3e264"/><stop offset="1" stop-color="#87b236"/></linearGradient></defs><title>Ресурс 246</title><g id="Слой_2" data-name="Слой 2"><g id="Слой_1-2" data-name="Слой 1"><polygon class="cls-1" points="4.5 62.95 4.5 24.45 37.85 5.2 71.19 24.45 71.19 62.95 37.85 82.21 4.5 62.95"/><path class="cls-2" d="M37.85,10.39,66.69,27.05V60.36L37.85,77,9,60.36V27.05L37.85,10.39M37.85,0l-4.5,2.6L4.5,19.25,0,21.85v43.7l4.5,2.6L33.35,84.81l4.5,2.59,4.5-2.59L71.19,68.15l4.5-2.6V21.85l-4.5-2.6L42.35,2.6,37.85,0Z"/><polygon class="cls-2" points="16.65 37.86 16.65 31.96 26.84 25.8 35.82 31.83 35.82 42.28 22.02 53.01 23.22 55.02 35.82 55.02 35.82 59.98 19.6 59.98 15.18 51.93 30.19 40.14 30.19 35.04 26.17 32.23 16.65 37.86"/><path class="cls-2" d="M56.67,42.79l3.18-1.06V31.13l-10.2-4.24L39.44,31.13v9.94l4.38,2.12-5.17,2.25v11.4l11,4.77L60.51,57V44.58ZM45.14,34.31l4.44-1.59,4.57,2.12v3.44L49.58,40l-4.44-2.52Zm9.68,19.35-4.51,1.85-5.83-2.65V48.49l5.83-2.25,4.51,2.25Z"/></g></g></svg>