<svg xmlns="http://www.w3.org/2000/svg" xmlns:xlink="http://www.w3.org/1999/xlink" viewBox="0 0 75.69 87.4"><defs><style>.cls-1{fill:url(#Безымянный_градиент_56);}.cls-2{fill:#fff;}</style><linearGradient id="Безымянный_градиент_56" x1="4.5" y1="43.7" x2="71.19" y2="43.7" gradientUnits="userSpaceOnUse"><stop offset="0" stop-color="#d6ad47"/><stop offset="1" stop-color="#bf7e30"/></linearGradient></defs><title>Ресурс 236</title><g id="Слой_2" data-name="Слой 2"><g id="Слой_1-2" data-name="Слой 1"><polygon class="cls-1" points="4.5 62.95 4.5 24.45 37.85 5.2 71.19 24.45 71.19 62.95 37.85 82.21 4.5 62.95"/><path class="cls-2" d="M37.85,10.39,66.69,27.05V60.36L37.85,77,9,60.36V27.05L37.85,10.39M37.85,0l-4.5,2.6L4.5,19.25,0,21.85v43.7l4.5,2.6L33.35,84.8l4.5,2.6,4.5-2.6L71.19,68.15l4.5-2.6V21.85l-4.5-2.6L42.35,2.6,37.85,0Z"/><polygon class="cls-2" points="17.12 31.83 17.12 26.98 35.98 26.98 35.98 34.97 27.73 39.42 35.98 42.17 35.98 53.7 27.21 60.64 17.12 56.32 17.12 50.42 26.55 54.35 30.22 51.47 30.22 45.84 21.31 42.3 21.31 36.41 30.87 32.09 17.12 31.83"/><polygon class="cls-2" points="40.21 26.77 58.57 26.77 58.57 39.86 51 47.93 51 58.85 45.6 58.85 45.6 45.51 53.31 37.55 53.31 31.77 40.21 31.9 40.21 26.77"/></g></g></svg>