<svg xmlns="http://www.w3.org/2000/svg" xmlns:xlink="http://www.w3.org/1999/xlink" viewBox="0 0 75.69 87.4"><defs><style>.cls-1{fill:url(#Безымянный_градиент_47);}.cls-2{fill:#fff;}</style><linearGradient id="Безымянный_градиент_47" x1="18.94" y1="-35.53" x2="95.95" y2="-35.53" gradientTransform="translate(2.32 -13.74) rotate(90)" gradientUnits="userSpaceOnUse"><stop offset="0" stop-color="#c3e264"/><stop offset="1" stop-color="#87b236"/></linearGradient></defs><title>Ресурс 244</title><g id="Слой_2" data-name="Слой 2"><g id="Слой_1-2" data-name="Слой 1"><polygon class="cls-1" points="4.5 62.95 4.5 24.45 37.85 5.2 71.19 24.45 71.19 62.95 37.85 82.21 4.5 62.95"/><path class="cls-2" d="M37.85,10.39,66.69,27.05V60.36L37.85,77,9,60.36V27.05L37.85,10.39M37.85,0l-4.5,2.6L4.5,19.25,0,21.85v43.7l4.5,2.6L33.35,84.8l4.5,2.6,4.5-2.6L71.19,68.15l4.5-2.6V21.85l-4.5-2.6L42.35,2.6,37.85,0Z"/><polygon class="cls-2" points="15.73 32.42 15.73 27.57 34.59 27.57 34.59 35.56 26.34 40.02 34.59 42.77 34.59 54.29 25.82 61.23 15.73 56.91 15.73 51.02 25.16 54.94 28.83 52.06 28.83 46.43 19.93 42.9 19.93 37 29.49 32.68 15.73 32.42"/><path class="cls-2" d="M54.4,26.17H43.79L37.73,33V51.68l5.81,7H53.9l6.06-7V33Zm-.12,23.75-3,3.53H46.7l-3.41-3.66V35.2L47,31h3.91l3.42,4.23Z"/></g></g></svg>