<svg xmlns="http://www.w3.org/2000/svg" xmlns:xlink="http://www.w3.org/1999/xlink" viewBox="0 0 75.69 87.4"><defs><style>.cls-1{fill:url(#Безымянный_градиент_26);}.cls-2{fill:#fff;}</style><linearGradient id="Безымянный_градиент_26" x1="-87.41" y1="71.12" x2="-10.4" y2="71.12" gradientTransform="translate(108.96 92.6) rotate(90)" gradientUnits="userSpaceOnUse"><stop offset="0" stop-color="#649392"/><stop offset="1" stop-color="#6ce5e1"/></linearGradient></defs><title>Ресурс 254</title><g id="Слой_2" data-name="Слой 2"><g id="Слой_1-2" data-name="Слой 1"><polygon class="cls-1" points="4.5 62.95 4.5 24.45 37.85 5.2 71.19 24.45 71.19 62.95 37.85 82.21 4.5 62.95"/><path class="cls-2" d="M37.85,10.39,66.69,27.05V60.36L37.85,77,9,60.36V27.05L37.85,10.39M37.85,0l-4.5,2.6L4.5,19.25,0,21.85v43.7l4.5,2.6L33.35,84.8l4.5,2.6,4.5-2.6L71.19,68.15l4.5-2.6V21.85l-4.5-2.6L42.35,2.6,37.85,0Z"/><path class="cls-2" d="M54.89,28.33H44.28l-6.06,6.82v18.7L44,60.79H54.39l6.06-6.94V35.15Zm-.12,23.75-3,3.53H47.19L43.78,52V37.36l3.66-4.23h3.92l3.41,4.23Z"/><polygon class="cls-2" points="16.72 38.67 16.72 32.78 26.91 26.61 35.89 32.64 35.89 43.1 22.08 53.82 23.29 55.83 35.89 55.83 35.89 60.79 19.67 60.79 15.24 52.75 30.26 40.95 30.26 35.86 26.24 33.05 16.72 38.67"/></g></g></svg>