<svg xmlns="http://www.w3.org/2000/svg" xmlns:xlink="http://www.w3.org/1999/xlink" viewBox="0 0 75.69 87.4"><defs><style>.cls-1{fill:url(#Безымянный_градиент_73);}.cls-2{fill:#fff;}</style><linearGradient id="Безымянный_градиент_73" x1="4.5" y1="43.7" x2="71.19" y2="43.7" gradientUnits="userSpaceOnUse"><stop offset="0" stop-color="#961775"/><stop offset="1" stop-color="#f21c69"/></linearGradient></defs><title>Ресурс 226</title><g id="Слой_2" data-name="Слой 2"><g id="Слой_1-2" data-name="Слой 1"><polygon class="cls-1" points="4.5 62.95 4.5 24.45 37.85 5.2 71.19 24.45 71.19 62.95 37.85 82.21 4.5 62.95"/><path class="cls-2" d="M37.85,10.39,66.69,27.05V60.36L37.85,77,9,60.36V27.05L37.85,10.39M37.85,0l-4.5,2.6L4.5,19.25,0,21.85v43.7l4.5,2.6L33.35,84.8l4.5,2.6,4.5-2.6L71.19,68.15l4.5-2.6V21.85l-4.5-2.6L42.35,2.6,37.85,0Z"/><path class="cls-2" d="M57,42.24l3.19-1.06V30.58L50,26.34l-10.2,4.24v9.94l4.37,2.12L39,44.89v11.4l11,4.77,10.87-4.64V44ZM45.47,33.76l4.44-1.59,4.57,2.12v3.45l-4.57,1.72-4.44-2.52Zm9.67,19.35L50.63,55,44.8,52.32V47.94l5.83-2.25,4.51,2.25Z"/><polygon class="cls-2" points="20.41 45.63 20.41 48.55 27.69 48.55 27.69 39.68 33.25 39.68 33.25 48.55 35.76 48.55 35.76 53.71 33.25 53.71 33.25 60.32 27.56 60.32 27.56 53.57 14.86 53.57 14.86 43.45 27.03 27.24 34.44 27.24 20.41 45.63"/></g></g></svg>