<svg xmlns="http://www.w3.org/2000/svg" xmlns:xlink="http://www.w3.org/1999/xlink" viewBox="0 0 75.69 87.4"><defs><style>.cls-1{fill:url(#Безымянный_градиент_17);}.cls-2{fill:#fff;}</style><linearGradient id="Безымянный_градиент_17" x1="-87.41" y1="71.12" x2="-10.4" y2="71.12" gradientTransform="translate(108.96 92.6) rotate(90)" gradientUnits="userSpaceOnUse"><stop offset="0" stop-color="#5f6872"/><stop offset="0.3" stop-color="#697585"/><stop offset="0.89" stop-color="#8298b7"/><stop offset="1" stop-color="#879fc1"/></linearGradient></defs><title>Ресурс 267</title><g id="Слой_2" data-name="Слой 2"><g id="Слой_1-2" data-name="Слой 1"><polygon class="cls-1" points="4.5 62.95 4.5 24.45 37.85 5.2 71.19 24.45 71.19 62.95 37.85 82.21 4.5 62.95"/><path class="cls-2" d="M37.85,10.39,66.69,27.05V60.36L37.85,77,9,60.36V27.05L37.85,10.39M37.85,0l-4.5,2.6L4.5,19.25,0,21.85v43.7l4.5,2.6L33.35,84.8l4.5,2.6,4.5-2.6L71.19,68.15l4.5-2.6V21.85l-4.5-2.6L42.35,2.6,37.85,0Z"/><polygon class="cls-2" points="27.11 24.93 48.59 24.93 48.59 40.25 39.72 49.7 39.72 62.48 33.41 62.48 33.41 46.86 42.43 37.54 42.43 30.78 27.11 30.93 27.11 24.93"/></g></g></svg>