<svg xmlns="http://www.w3.org/2000/svg" xmlns:xlink="http://www.w3.org/1999/xlink" viewBox="0 0 75.69 87.4"><defs><style>.cls-1{fill:url(#Безымянный_градиент_56);}.cls-2{fill:#fff;}</style><linearGradient id="Безымянный_градиент_56" x1="4.5" y1="43.7" x2="71.19" y2="43.7" gradientUnits="userSpaceOnUse"><stop offset="0" stop-color="#d6ad47"/><stop offset="1" stop-color="#bf7e30"/></linearGradient></defs><title>Ресурс 237</title><g id="Слой_2" data-name="Слой 2"><g id="Слой_1-2" data-name="Слой 1"><polygon class="cls-1" points="4.5 62.95 4.5 24.45 37.85 5.2 71.19 24.45 71.19 62.95 37.85 82.21 4.5 62.95"/><path class="cls-2" d="M37.85,10.39,66.69,27.05V60.36L37.85,77,9,60.36V27.05L37.85,10.39M37.85,0l-4.5,2.6L4.5,19.25,0,21.85v43.7l4.5,2.6L33.35,84.8l4.5,2.6,4.5-2.6L71.19,68.15l4.5-2.6V21.85l-4.5-2.6L42.35,2.6,37.85,0Z"/><polygon class="cls-2" points="17.88 32.05 17.88 27.2 36.74 27.2 36.74 35.19 28.49 39.65 36.74 42.4 36.74 53.92 27.96 60.86 17.88 56.54 17.88 50.65 27.31 54.58 30.98 51.7 30.98 46.06 22.07 42.53 22.07 36.63 31.63 32.31 17.88 32.05"/><path class="cls-2" d="M50.92,36.12l-6.13,4.09v-5l2.42-2.69,8.69,1.92-.13-5.36-9.45-2.56-7.15,7.15V55.28L51.55,60l6.26-5.87v-13Zm1.4,16.09-1.53,1.41-6-2.3V46.08l5.36-3.21,2.17,1.42Z"/></g></g></svg>