<svg xmlns="http://www.w3.org/2000/svg" xmlns:xlink="http://www.w3.org/1999/xlink" viewBox="0 0 75.69 87.4"><defs><style>.cls-1{fill:url(#Безымянный_градиент_51);}.cls-2{fill:#fff;}</style><linearGradient id="Безымянный_градиент_51" x1="304.25" y1="51.15" x2="381.26" y2="51.15" gradientTransform="translate(89 -299.05) rotate(90)" gradientUnits="userSpaceOnUse"><stop offset="0" stop-color="#e0d465"/><stop offset="1" stop-color="#afa137"/></linearGradient></defs><title>Ресурс 240</title><g id="Слой_2" data-name="Слой 2"><g id="Слой_1-2" data-name="Слой 1"><polygon class="cls-1" points="4.5 62.95 4.5 24.45 37.85 5.2 71.19 24.45 71.19 62.95 37.85 82.21 4.5 62.95"/><path class="cls-2" d="M37.85,10.39,66.69,27.05V60.36L37.85,77,9,60.36V27.05L37.85,10.39M37.85,0l-4.5,2.6L4.5,19.25,0,21.85v43.7l4.5,2.6L33.35,84.8l4.5,2.6,4.5-2.6L71.19,68.15l4.5-2.6V21.85l-4.5-2.6L42.35,2.6,37.85,0Z"/><polygon class="cls-2" points="16.14 32.45 16.14 27.61 35 27.61 35 35.6 26.75 40.05 35 42.8 35 54.33 26.23 61.27 16.14 56.95 16.14 51.05 25.57 54.98 29.24 52.1 29.24 46.47 20.33 42.93 20.33 37.04 29.89 32.72 16.14 32.45"/><polygon class="cls-2" points="44.2 44.53 44.2 47.44 51.48 47.44 51.48 38.58 57.04 38.58 57.04 47.44 59.55 47.44 59.55 52.6 57.04 52.6 57.04 59.22 51.35 59.22 51.35 52.47 38.64 52.47 38.64 42.35 50.82 26.14 58.23 26.14 44.2 44.53"/></g></g></svg>