<svg xmlns="http://www.w3.org/2000/svg" xmlns:xlink="http://www.w3.org/1999/xlink" viewBox="0 0 75.69 87.4"><defs><style>.cls-1{fill:url(#Безымянный_градиент_32);}.cls-2{fill:#fff;}</style><linearGradient id="Безымянный_градиент_32" x1="111.25" y1="60.59" x2="188.26" y2="60.59" gradientTransform="translate(98.43 -106.05) rotate(90)" gradientUnits="userSpaceOnUse"><stop offset="0" stop-color="#7dba80"/><stop offset="1" stop-color="#428956"/></linearGradient></defs><title>Ресурс 249</title><g id="Слой_2" data-name="Слой 2"><g id="Слой_1-2" data-name="Слой 1"><polygon class="cls-1" points="4.5 62.95 4.5 24.45 37.85 5.2 71.19 24.45 71.19 62.95 37.85 82.21 4.5 62.95"/><path class="cls-2" d="M37.85,10.39,66.69,27.05V60.36L37.85,77,9,60.36V27.05L37.85,10.39M37.85,0l-4.5,2.6L4.5,19.25,0,21.85v43.7l4.5,2.6L33.35,84.8l4.5,2.6,4.5-2.6L71.19,68.15l4.5-2.6V21.85l-4.5-2.6L42.35,2.6,37.85,0Z"/><polygon class="cls-2" points="18.13 38.16 18.13 32.27 28.32 26.1 37.3 32.13 37.3 42.59 23.49 53.31 24.7 55.32 37.3 55.32 37.3 60.28 21.08 60.28 16.66 52.24 31.67 40.44 31.67 35.35 27.65 32.53 18.13 38.16"/><polygon class="cls-2" points="57.52 28.8 40.58 28.8 40.58 46 45.89 47.77 51.7 44.3 53.6 45.75 53.6 53.59 52.46 55.11 40.58 50.55 40.58 56.25 52.84 61.3 59.04 55.36 59.04 42.59 51.94 37.72 46.27 41.7 46.27 33.86 57.52 33.86 57.52 28.8"/></g></g></svg>