<svg xmlns="http://www.w3.org/2000/svg" viewBox="0 0 75.69 87.4"><defs><style>.cls-1{fill:#7dbcbc;}.cls-2{fill:#fff;}</style></defs><title>Ресурс 260</title><g id="Слой_2" data-name="Слой 2"><g id="Слой_1-2" data-name="Слой 1"><polygon class="cls-1" points="4.5 62.95 4.5 24.45 37.85 5.2 71.19 24.45 71.19 62.95 37.85 82.21 4.5 62.95"/><path class="cls-2" d="M37.85,10.39,66.69,27.05V60.36L37.85,77,9,60.36V27.05L37.85,10.39M37.85,0l-4.5,2.6L4.5,19.25,0,21.85v43.7l4.5,2.6L33.35,84.8l4.5,2.6,4.5-2.6L71.19,68.15l4.5-2.6V21.85l-4.5-2.6L42.35,2.6,37.85,0Z"/><polygon class="cls-2" points="19.71 34.96 19.71 28.7 23.49 26.75 29.75 30.86 29.75 55.18 33.67 55.18 33.67 60.27 19.71 60.27 19.71 55.18 24.02 55.18 24.02 32.62 19.71 34.96"/><polygon class="cls-2" points="40.63 45.97 40.63 48.88 47.91 48.88 47.91 40.01 53.47 40.01 53.47 48.88 55.98 48.88 55.98 54.04 53.47 54.04 53.47 60.66 47.78 60.66 47.78 53.91 35.08 53.91 35.08 43.78 47.25 27.57 54.66 27.57 40.63 45.97"/></g></g></svg>