<svg xmlns="http://www.w3.org/2000/svg" xmlns:xlink="http://www.w3.org/1999/xlink" viewBox="0 0 75.69 87.4"><defs><style>.cls-1{fill:url(#Безымянный_градиент_73);}.cls-2{fill:#fff;}</style><linearGradient id="Безымянный_градиент_73" x1="4.5" y1="43.7" x2="71.19" y2="43.7" gradientUnits="userSpaceOnUse"><stop offset="0" stop-color="#961775"/><stop offset="1" stop-color="#f21c69"/></linearGradient></defs><title>Ресурс 225</title><g id="Слой_2" data-name="Слой 2"><g id="Слой_1-2" data-name="Слой 1"><polygon class="cls-1" points="4.5 62.95 4.5 24.45 37.85 5.2 71.19 24.45 71.19 62.95 37.85 82.21 4.5 62.95"/><path class="cls-2" d="M37.85,10.39,66.69,27.05V60.36L37.85,77,9,60.36V27.05L37.85,10.39M37.85,0l-4.5,2.6L4.5,19.25,0,21.85v43.7l4.5,2.6L33.35,84.8l4.5,2.6,4.5-2.6L71.19,68.15l4.5-2.6V21.85l-4.5-2.6L42.35,2.6,37.85,0Z"/><path class="cls-2" d="M46.28,26.24,40,32.1V45.7L47.21,51l6.27-4.13-.14,5.2L50.68,55l-8.8-2.53v6l9.73,2.66,7.46-7.33V31Zm7.2,14.26-5.74,3.87-2-1.09V33.84l1.6-1.74,6.14,2.8Z"/><polygon class="cls-2" points="22.18 45.8 22.18 48.71 29.45 48.71 29.45 39.84 35.01 39.84 35.01 48.71 37.53 48.71 37.53 53.87 35.01 53.87 35.01 60.49 29.32 60.49 29.32 53.74 16.62 53.74 16.62 43.61 28.79 27.4 36.2 27.4 22.18 45.8"/></g></g></svg>