<svg xmlns="http://www.w3.org/2000/svg" xmlns:xlink="http://www.w3.org/1999/xlink" viewBox="0 0 75.69 87.4"><defs><style>.cls-1{fill:url(#Безымянный_градиент_56);}.cls-2{fill:#fff;}</style><linearGradient id="Безымянный_градиент_56" x1="4.5" y1="43.7" x2="71.19" y2="43.7" gradientUnits="userSpaceOnUse"><stop offset="0" stop-color="#d6ad47"/><stop offset="1" stop-color="#bf7e30"/></linearGradient></defs><title>Ресурс 238</title><g id="Слой_2" data-name="Слой 2"><g id="Слой_1-2" data-name="Слой 1"><polygon class="cls-1" points="4.5 62.95 4.5 24.45 37.85 5.2 71.19 24.45 71.19 62.95 37.85 82.21 4.5 62.95"/><path class="cls-2" d="M37.85,10.39,66.69,27.05V60.36L37.85,77,9,60.36V27.05L37.85,10.39M37.85,0l-4.5,2.6L4.5,19.25,0,21.85v43.7l4.5,2.6L33.35,84.8l4.5,2.6,4.5-2.6L71.19,68.15l4.5-2.6V21.85l-4.5-2.6L42.35,2.6,37.85,0Z"/><polygon class="cls-2" points="20.39 45.54 20.39 48.46 27.66 48.46 27.66 39.59 33.22 39.59 33.22 48.46 35.73 48.46 35.73 53.62 33.22 53.62 33.22 60.23 27.53 60.23 27.53 53.48 14.83 53.48 14.83 43.36 27 27.15 34.41 27.15 20.39 45.54"/><path class="cls-2" d="M55.31,27.79H44.7l-6.06,6.82v18.7l5.81,6.94H54.8l6.07-6.94V34.61Zm-.13,23.75-3,3.53H47.6l-3.41-3.66V36.82l3.67-4.23h3.91l3.41,4.23Z"/></g></g></svg>