<svg xmlns="http://www.w3.org/2000/svg" xmlns:xlink="http://www.w3.org/1999/xlink" viewBox="0 0 75.69 87.4"><defs><style>.cls-1{fill:url(#Безымянный_градиент_51);}.cls-2{fill:#fff;}</style><linearGradient id="Безымянный_градиент_51" x1="484.31" y1="232.12" x2="561.32" y2="232.12" gradientTransform="translate(269.97 -479.11) rotate(90)" gradientUnits="userSpaceOnUse"><stop offset="0" stop-color="#e0d465"/><stop offset="1" stop-color="#afa137"/></linearGradient></defs><title>Ресурс 242</title><g id="Слой_2" data-name="Слой 2"><g id="Слой_1-2" data-name="Слой 1"><polygon class="cls-1" points="4.5 62.95 4.5 24.45 37.85 5.2 71.19 24.45 71.19 62.95 37.85 82.21 4.5 62.95"/><path class="cls-2" d="M37.85,10.39,66.69,27.05V60.36L37.85,77,9,60.36V27.05L37.85,10.39M37.85,0l-4.5,2.6L4.5,19.25,0,21.85v43.7l4.5,2.6L33.35,84.8l4.5,2.6,4.5-2.6L71.19,68.15l4.5-2.6V21.85l-4.5-2.6L42.35,2.6,37.85,0Z"/><polygon class="cls-2" points="17.06 32.72 17.06 27.88 35.92 27.88 35.92 35.87 27.67 40.32 35.92 43.07 35.92 54.59 27.15 61.53 17.06 57.21 17.06 51.32 26.49 55.25 30.16 52.37 30.16 46.74 21.25 43.2 21.25 37.31 30.81 32.98 17.06 32.72"/><polygon class="cls-2" points="39.73 37.77 39.73 31.95 49.77 25.87 58.63 31.82 58.63 42.13 45.02 52.7 46.2 54.68 58.63 54.68 58.63 59.57 42.64 59.57 38.27 51.64 53.08 40.01 53.08 34.99 49.11 32.21 39.73 37.77"/></g></g></svg>