<svg xmlns="http://www.w3.org/2000/svg" xmlns:xlink="http://www.w3.org/1999/xlink" viewBox="0 0 75.69 84.19"><defs><style>.cls-1{fill:url(#Безымянный_градиент_51);}.cls-2{fill:#fff;}</style><linearGradient id="Безымянный_градиент_51" x1="305.16" y1="49.55" x2="380.35" y2="49.55" gradientTransform="translate(87.39 -300.66) rotate(90)" gradientUnits="userSpaceOnUse"><stop offset="0" stop-color="#e0d465"/><stop offset="1" stop-color="#afa137"/></linearGradient></defs><title>userlevel_34</title><g id="Слой_2" data-name="Слой 2"><g id="Слой_1-2" data-name="Слой 1"><path class="cls-1" d="M37.85,79.69a5.93,5.93,0,0,1-2.94-.78L7.44,63A5.86,5.86,0,0,1,4.5,58V26.23a5.9,5.9,0,0,1,2.93-5.08L34.91,5.29a5.85,5.85,0,0,1,5.87,0L68.26,21.15a5.88,5.88,0,0,1,2.93,5.08V58A5.87,5.87,0,0,1,68.26,63L40.78,78.91A5.89,5.89,0,0,1,37.85,79.69Z"/><path class="cls-2" d="M37.85,9a1.38,1.38,0,0,1,.68.18L66,25.05a1.36,1.36,0,0,1,.68,1.18V58A1.39,1.39,0,0,1,66,59.15L38.53,75a1.39,1.39,0,0,1-1.37,0L9.69,59.15A1.37,1.37,0,0,1,9,58V26.23a1.35,1.35,0,0,1,.69-1.18L37.16,9.18A1.39,1.39,0,0,1,37.85,9m0-9a10.4,10.4,0,0,0-5.19,1.39L5.19,17.25a10.41,10.41,0,0,0-5.19,9V58a10.41,10.41,0,0,0,5.19,9L32.66,82.8A10.37,10.37,0,0,0,43,82.8L70.51,66.94a10.4,10.4,0,0,0,5.18-9V26.23a10.4,10.4,0,0,0-5.18-9L43,1.39A10.36,10.36,0,0,0,37.85,0Z"/><polygon class="cls-2" points="16.14 30.85 16.14 26 35 26 35 33.99 26.75 38.45 35 41.2 35 52.72 26.23 59.66 16.14 55.34 16.14 49.45 25.57 53.38 29.24 50.49 29.24 44.86 20.33 41.33 20.33 35.44 29.89 31.11 16.14 30.85"/><polygon class="cls-2" points="44.2 42.92 44.2 45.84 51.48 45.84 51.48 36.97 57.04 36.97 57.04 45.84 59.55 45.84 59.55 51 57.04 51 57.04 57.61 51.35 57.61 51.35 50.87 38.64 50.87 38.64 40.74 50.82 24.53 58.23 24.53 44.2 42.92"/></g></g></svg>