<svg xmlns="http://www.w3.org/2000/svg" viewBox="0 0 75.69 84.23"><defs><style>.cls-1{fill:#949fb2;}.cls-2{fill:#fff;}</style></defs><title>userlevel_5</title><g id="Слой_2" data-name="Слой 2"><g id="Слой_1-2" data-name="Слой 1"><path class="cls-1" d="M37.85,79.73A5.8,5.8,0,0,1,35,79L7.38,63a5.77,5.77,0,0,1-2.88-5V26.18a5.76,5.76,0,0,1,2.88-5L35,5.27a5.75,5.75,0,0,1,5.75,0L68.32,21.2a5.77,5.77,0,0,1,2.87,5V58.05a5.79,5.79,0,0,1-2.87,5L40.72,79A5.79,5.79,0,0,1,37.85,79.73Z"/><path class="cls-2" d="M37.85,9a1.26,1.26,0,0,1,.62.17L66.07,25.1a1.26,1.26,0,0,1,.62,1.08V58.05a1.26,1.26,0,0,1-.62,1.08L38.47,75.06a1.23,1.23,0,0,1-1.25,0L9.63,59.13A1.25,1.25,0,0,1,9,58.05V26.18a1.25,1.25,0,0,1,.63-1.08L37.22,9.17A1.27,1.27,0,0,1,37.85,9m0-9a10.26,10.26,0,0,0-5.13,1.37L5.13,17.3A10.28,10.28,0,0,0,0,26.18V58.05a10.28,10.28,0,0,0,5.13,8.88L32.72,82.86a10.27,10.27,0,0,0,10.25,0l27.6-15.93a10.29,10.29,0,0,0,5.12-8.88V26.18a10.29,10.29,0,0,0-5.12-8.88L43,1.37A10.23,10.23,0,0,0,37.85,0Z"/><polygon class="cls-2" points="46.37 24.17 27.65 24.17 27.65 43.16 33.52 45.12 39.94 41.28 42.04 42.88 42.04 51.54 40.78 53.22 27.65 48.19 27.65 54.48 41.2 60.06 48.04 53.5 48.04 39.39 40.2 34.01 33.94 38.41 33.94 29.75 46.37 29.75 46.37 24.17"/></g></g></svg>