<svg xmlns="http://www.w3.org/2000/svg" xmlns:xlink="http://www.w3.org/1999/xlink" viewBox="0 0 75.69 83.81"><defs><style>.cls-1{fill:url(#Безымянный_градиент_47);}.cls-2{fill:#fff;}</style><linearGradient id="Безымянный_градиент_47" x1="-356.57" y1="-402.9" x2="-281.76" y2="-402.9" gradientTransform="translate(-365.06 361.07) rotate(90)" gradientUnits="userSpaceOnUse"><stop offset="0" stop-color="#c3e264"/><stop offset="1" stop-color="#87b236"/></linearGradient></defs><title>userlevel_29</title><g id="Слой_2" data-name="Слой 2"><g id="Слой_1-2" data-name="Слой 1"><path class="cls-1" d="M37.85,79.31a6.92,6.92,0,0,1-3.45-.89L8,63.15a7.11,7.11,0,0,1-3.45-6V26.63a7.1,7.1,0,0,1,3.44-6L34.4,5.39a6.92,6.92,0,0,1,3.45-.89,7,7,0,0,1,3.44.88L67.75,20.66a7.1,7.1,0,0,1,3.44,6V57.18a7.1,7.1,0,0,1-3.44,6L41.29,78.42A6.88,6.88,0,0,1,37.85,79.31Z"/><path class="cls-2" d="M37.85,9A2.43,2.43,0,0,1,39,9.28L65.5,24.56a2.64,2.64,0,0,1,1.19,2.07V57.18a2.64,2.64,0,0,1-1.19,2.07L39,74.52a2.61,2.61,0,0,1-2.39,0L10.2,59.25A2.65,2.65,0,0,1,9,57.18V26.63a2.65,2.65,0,0,1,1.2-2.07L36.65,9.28A2.45,2.45,0,0,1,37.85,9m0-9a11.46,11.46,0,0,0-5.7,1.49L5.7,16.77A11.56,11.56,0,0,0,0,26.63V57.18A11.57,11.57,0,0,0,5.7,67L32.15,82.32a11.63,11.63,0,0,0,11.39,0L70,67a11.56,11.56,0,0,0,5.69-9.86V26.63A11.55,11.55,0,0,0,70,16.77L43.54,1.49A11.45,11.45,0,0,0,37.85,0Z"/><polygon class="cls-2" points="17.8 36.19 17.8 30.29 27.99 24.13 36.97 30.16 36.97 40.61 23.16 51.34 24.37 53.35 36.97 53.35 36.97 58.31 20.75 58.31 16.32 50.27 31.34 38.47 31.34 33.38 27.32 30.56 17.8 36.19"/><path class="cls-2" d="M46.57,24.75l-6.26,5.87v13.6l7.2,5.33,6.26-4.13-.13,5.2L51,53.55,42.17,51v6l9.73,2.67,7.47-7.33V29.55ZM53.77,39,48,42.88,46,41.8V32.35l1.6-1.73,6.13,2.8Z"/></g></g></svg>