<svg xmlns="http://www.w3.org/2000/svg" xmlns:xlink="http://www.w3.org/1999/xlink" viewBox="0 0 75.69 84.19"><defs><style>.cls-1{fill:url(#Безымянный_градиент_32);}.cls-2{fill:#fff;}</style><linearGradient id="Безымянный_градиент_32" x1="382.75" y1="330.84" x2="457.95" y2="330.84" gradientTransform="translate(368.69 -378.25) rotate(90)" gradientUnits="userSpaceOnUse"><stop offset="0" stop-color="#7dba80"/><stop offset="1" stop-color="#428956"/></linearGradient></defs><title>userlevel_22</title><g id="Слой_2" data-name="Слой 2"><g id="Слой_1-2" data-name="Слой 1"><path class="cls-1" d="M37.85,79.69a5.89,5.89,0,0,1-2.93-.78L7.44,63.05A5.89,5.89,0,0,1,4.5,58V26.23a5.88,5.88,0,0,1,2.94-5.08L34.91,5.29a5.85,5.85,0,0,1,5.87,0L68.26,21.15a5.87,5.87,0,0,1,2.93,5.08V58A5.87,5.87,0,0,1,68.26,63L40.78,78.91A5.92,5.92,0,0,1,37.85,79.69Z"/><path class="cls-2" d="M37.85,9a1.38,1.38,0,0,1,.68.18L66,25.05a1.36,1.36,0,0,1,.68,1.18V58A1.39,1.39,0,0,1,66,59.15L38.53,75a1.39,1.39,0,0,1-1.37,0L9.69,59.15A1.37,1.37,0,0,1,9,58V26.23a1.35,1.35,0,0,1,.69-1.18L37.16,9.18A1.39,1.39,0,0,1,37.85,9m0-9a10.4,10.4,0,0,0-5.19,1.39L5.19,17.25a10.41,10.41,0,0,0-5.19,9V58a10.41,10.41,0,0,0,5.19,9L32.66,82.8A10.37,10.37,0,0,0,43,82.8L70.51,66.94a10.4,10.4,0,0,0,5.18-9V26.23a10.4,10.4,0,0,0-5.18-9L43,1.39A10.36,10.36,0,0,0,37.85,0Z"/><polygon class="cls-2" points="18.32 37.07 18.32 31.17 28.51 25.01 37.49 31.04 37.49 41.49 23.68 52.22 24.89 54.23 37.49 54.23 37.49 59.19 21.27 59.19 16.85 51.15 31.86 39.35 31.86 34.26 27.84 31.44 18.32 37.07"/><polygon class="cls-2" points="39.94 37.23 39.94 31.42 49.99 25.34 58.85 31.28 58.85 41.59 45.23 52.17 46.42 54.15 58.85 54.15 58.85 59.04 42.85 59.04 38.49 51.11 53.29 39.48 53.29 34.46 49.33 31.68 39.94 37.23"/></g></g></svg>