<svg xmlns="http://www.w3.org/2000/svg" viewBox="0 0 75.69 84.19"><defs><style>.cls-1{fill:#7dbcbc;}.cls-2{fill:#fff;}</style></defs><title>userlevel_11</title><g id="Слой_2" data-name="Слой 2"><g id="Слой_1-2" data-name="Слой 1"><path class="cls-1" d="M37.85,79.69a5.89,5.89,0,0,1-2.93-.78L7.44,63.05A5.89,5.89,0,0,1,4.5,58V26.23a5.88,5.88,0,0,1,2.94-5.08L34.91,5.29a5.85,5.85,0,0,1,5.87,0L68.26,21.15a5.87,5.87,0,0,1,2.93,5.08V58A5.87,5.87,0,0,1,68.26,63L40.78,78.91A5.92,5.92,0,0,1,37.85,79.69Z"/><path class="cls-2" d="M37.85,9a1.38,1.38,0,0,1,.68.18L66,25.05a1.36,1.36,0,0,1,.68,1.18V58A1.39,1.39,0,0,1,66,59.15L38.53,75a1.39,1.39,0,0,1-1.37,0L9.69,59.15A1.37,1.37,0,0,1,9,58V26.23a1.35,1.35,0,0,1,.69-1.18L37.16,9.18A1.39,1.39,0,0,1,37.85,9m0-9a10.4,10.4,0,0,0-5.19,1.39L5.19,17.25a10.41,10.41,0,0,0-5.19,9V58a10.39,10.39,0,0,0,5.19,9L32.66,82.8a10.4,10.4,0,0,0,10.37,0L70.51,66.94a10.39,10.39,0,0,0,5.18-9V26.23a10.4,10.4,0,0,0-5.18-9L43,1.39A10.36,10.36,0,0,0,37.85,0Z"/><polygon class="cls-2" points="22.25 33.51 22.25 27.25 26.04 25.29 32.3 29.4 32.3 53.73 36.21 53.73 36.21 58.82 22.25 58.82 22.25 53.73 26.56 53.73 26.56 31.16 22.25 33.51"/><polygon class="cls-2" points="39.48 33.59 39.48 27.33 43.27 25.38 49.53 29.49 49.53 53.81 53.44 53.81 53.44 58.9 39.48 58.9 39.48 53.81 43.79 53.81 43.79 31.25 39.48 33.59"/></g></g></svg>