<svg xmlns="http://www.w3.org/2000/svg" xmlns:xlink="http://www.w3.org/1999/xlink" viewBox="0 0 75.69 84.19"><defs><style>.cls-1{fill:url(#Безымянный_градиент_32);}.cls-2{fill:#fff;}</style><linearGradient id="Безымянный_градиент_32" x1="292.77" y1="239.88" x2="367.96" y2="239.88" gradientTransform="translate(277.73 -288.27) rotate(90)" gradientUnits="userSpaceOnUse"><stop offset="0" stop-color="#7dba80"/><stop offset="1" stop-color="#428956"/></linearGradient></defs><title>userlevel_23</title><g id="Слой_2" data-name="Слой 2"><g id="Слой_1-2" data-name="Слой 1"><path class="cls-1" d="M37.85,79.69a5.93,5.93,0,0,1-2.94-.78L7.44,63A5.86,5.86,0,0,1,4.5,58V26.23a5.9,5.9,0,0,1,2.93-5.08L34.91,5.29a5.85,5.85,0,0,1,5.87,0L68.26,21.15a5.9,5.9,0,0,1,2.93,5.08V58A5.87,5.87,0,0,1,68.26,63L40.78,78.91A5.89,5.89,0,0,1,37.85,79.69Z"/><path class="cls-2" d="M37.85,9a1.38,1.38,0,0,1,.68.18L66,25.05a1.36,1.36,0,0,1,.68,1.18V58A1.39,1.39,0,0,1,66,59.15L38.53,75a1.39,1.39,0,0,1-1.37,0L9.69,59.15A1.37,1.37,0,0,1,9,58V26.23a1.35,1.35,0,0,1,.69-1.18L37.16,9.18A1.39,1.39,0,0,1,37.85,9m0-9a10.4,10.4,0,0,0-5.19,1.39L5.19,17.25a10.41,10.41,0,0,0-5.19,9V58a10.39,10.39,0,0,0,5.19,9L32.66,82.8a10.4,10.4,0,0,0,10.37,0L70.51,66.94a10.39,10.39,0,0,0,5.18-9V26.23a10.4,10.4,0,0,0-5.18-9L43,1.39A10.36,10.36,0,0,0,37.85,0Z"/><polygon class="cls-2" points="18.76 36.09 18.76 30.19 28.94 24.03 37.92 30.06 37.92 40.51 24.12 51.24 25.32 53.25 37.92 53.25 37.92 58.21 21.7 58.21 17.28 50.16 32.29 38.37 32.29 33.27 28.27 30.46 18.76 36.09"/><polygon class="cls-2" points="39.55 31.36 39.55 26.51 58.41 26.51 58.41 34.5 50.16 38.95 58.41 41.7 58.41 53.23 49.64 60.17 39.55 55.85 39.55 49.95 48.98 53.88 52.65 51 52.65 45.37 43.74 41.83 43.74 35.94 53.3 31.62 39.55 31.36"/></g></g></svg>