<svg xmlns="http://www.w3.org/2000/svg" xmlns:xlink="http://www.w3.org/1999/xlink" viewBox="0 0 75.69 83.81"><defs><style>.cls-1{fill:url(#Безымянный_градиент_73);}.cls-2{fill:#fff;}</style><linearGradient id="Безымянный_градиент_73" x1="4.5" y1="41.9" x2="71.19" y2="41.9" gradientUnits="userSpaceOnUse"><stop offset="0" stop-color="#961775"/><stop offset="1" stop-color="#f21c69"/></linearGradient></defs><title>userlevel_48</title><g id="Слой_2" data-name="Слой 2"><g id="Слой_1-2" data-name="Слой 1"><path class="cls-1" d="M37.85,79.31a6.92,6.92,0,0,1-3.45-.89L8,63.15a7.09,7.09,0,0,1-3.45-6V26.63a7.11,7.11,0,0,1,3.45-6L34.4,5.39a7.11,7.11,0,0,1,6.89,0L67.75,20.66a7.1,7.1,0,0,1,3.44,6V57.18a7.1,7.1,0,0,1-3.44,6L41.29,78.42A6.91,6.91,0,0,1,37.85,79.31Z"/><path class="cls-2" d="M37.85,9A2.43,2.43,0,0,1,39,9.28L65.5,24.56a2.64,2.64,0,0,1,1.19,2.07V57.18a2.64,2.64,0,0,1-1.19,2.07L39,74.52a2.61,2.61,0,0,1-2.39,0L10.2,59.25A2.65,2.65,0,0,1,9,57.18V26.63a2.65,2.65,0,0,1,1.2-2.07L36.65,9.28A2.45,2.45,0,0,1,37.85,9m0-9a11.46,11.46,0,0,0-5.7,1.49L5.7,16.77A11.56,11.56,0,0,0,0,26.63V57.18A11.57,11.57,0,0,0,5.7,67L32.15,82.32a11.63,11.63,0,0,0,11.39,0L70,67a11.56,11.56,0,0,0,5.69-9.86V26.63A11.58,11.58,0,0,0,70,16.76L43.54,1.49A11.45,11.45,0,0,0,37.85,0Z"/><path class="cls-2" d="M57,40.45l3.19-1.06V28.78L50,24.54l-10.2,4.24v9.94l4.37,2.12L39,43.1V54.49l11,4.77,10.87-4.63V42.24ZM45.47,32l4.44-1.59,4.57,2.13v3.44l-4.57,1.72-4.44-2.51Zm9.67,19.35-4.51,1.86L44.8,50.52V46.14l5.83-2.25,4.51,2.25Z"/><polygon class="cls-2" points="20.41 43.84 20.41 46.75 27.69 46.75 27.69 37.88 33.25 37.88 33.25 46.75 35.76 46.75 35.76 51.91 33.25 51.91 33.25 58.52 27.56 58.52 27.56 51.78 14.86 51.78 14.86 41.65 27.03 25.44 34.44 25.44 20.41 43.84"/></g></g></svg>