<svg xmlns="http://www.w3.org/2000/svg" xmlns:xlink="http://www.w3.org/1999/xlink" viewBox="0 0 75.69 83.81"><defs><style>.cls-1{fill:url(#Безымянный_градиент_19);}.cls-2{fill:#fff;}</style><linearGradient id="Безымянный_градиент_19" x1="-86.31" y1="69.32" x2="-11.5" y2="69.32" gradientTransform="translate(107.17 90.81) rotate(90)" gradientUnits="userSpaceOnUse"><stop offset="0" stop-color="#5f6872"/><stop offset="1" stop-color="#879fc1"/></linearGradient></defs><title>userlevel_9</title><g id="Слой_2" data-name="Слой 2"><g id="Слой_1-2" data-name="Слой 1"><path class="cls-1" d="M37.85,79.31a6.92,6.92,0,0,1-3.45-.89L7.94,63.15a7.12,7.12,0,0,1-3.44-6V26.63a7.12,7.12,0,0,1,3.44-6L34.4,5.39a7.11,7.11,0,0,1,6.89,0L67.75,20.66a7.1,7.1,0,0,1,3.44,6V57.18a7.1,7.1,0,0,1-3.44,6L41.29,78.42A6.86,6.86,0,0,1,37.85,79.31Z"/><path class="cls-2" d="M37.85,9A2.43,2.43,0,0,1,39,9.28L65.5,24.56a2.64,2.64,0,0,1,1.19,2.07V57.18a2.64,2.64,0,0,1-1.19,2.07L39,74.52a2.61,2.61,0,0,1-2.39,0L10.2,59.25A2.65,2.65,0,0,1,9,57.18V26.63a2.65,2.65,0,0,1,1.2-2.07L36.65,9.28A2.45,2.45,0,0,1,37.85,9m0-9a11.46,11.46,0,0,0-5.7,1.49L5.7,16.76A11.58,11.58,0,0,0,0,26.63V57.18A11.57,11.57,0,0,0,5.7,67L32.15,82.32a11.63,11.63,0,0,0,11.39,0L70,67a11.56,11.56,0,0,0,5.69-9.86V26.63A11.55,11.55,0,0,0,70,16.77L43.54,1.49A11.45,11.45,0,0,0,37.85,0Z"/><path class="cls-2" d="M34.45,23.24l-6.7,6.27V44l7.7,5.7,6.69-4.42L42,50.88,39.15,54l-9.4-2.71v6.41l10.4,2.85,8-7.83V28.37Zm7.69,15.25L36,42.62l-2.13-1.17V31.36l1.71-1.85,6.55,3Z"/></g></g></svg>