<svg xmlns="http://www.w3.org/2000/svg" xmlns:xlink="http://www.w3.org/1999/xlink" viewBox="0 0 75.69 84.19"><defs><style>.cls-1{fill:url(#Безымянный_градиент_32);}.cls-2{fill:#fff;}</style><linearGradient id="Безымянный_градиент_32" x1="205.23" y1="150.61" x2="280.42" y2="150.61" gradientTransform="translate(188.46 -200.73) rotate(90)" gradientUnits="userSpaceOnUse"><stop offset="0" stop-color="#7dba80"/><stop offset="1" stop-color="#428956"/></linearGradient></defs><title>userlevel_24</title><g id="Слой_2" data-name="Слой 2"><g id="Слой_1-2" data-name="Слой 1"><path class="cls-1" d="M37.85,79.69a5.89,5.89,0,0,1-2.93-.78L7.44,63.05A5.89,5.89,0,0,1,4.5,58V26.23a5.88,5.88,0,0,1,2.93-5.08L34.91,5.29a5.85,5.85,0,0,1,5.87,0L68.26,21.15a5.88,5.88,0,0,1,2.93,5.08V58A5.87,5.87,0,0,1,68.26,63L40.78,78.91A5.92,5.92,0,0,1,37.85,79.69Z"/><path class="cls-2" d="M37.85,9a1.38,1.38,0,0,1,.68.18L66,25.05a1.36,1.36,0,0,1,.68,1.18V58A1.39,1.39,0,0,1,66,59.15L38.53,75a1.39,1.39,0,0,1-1.37,0L9.69,59.15A1.37,1.37,0,0,1,9,58V26.23a1.35,1.35,0,0,1,.69-1.18L37.16,9.18A1.39,1.39,0,0,1,37.85,9m0-9a10.4,10.4,0,0,0-5.19,1.39L5.19,17.25a10.41,10.41,0,0,0-5.19,9V58a10.39,10.39,0,0,0,5.19,9L32.66,82.8A10.37,10.37,0,0,0,43,82.8L70.51,66.94a10.39,10.39,0,0,0,5.18-9V26.23a10.4,10.4,0,0,0-5.18-9L43,1.39A10.36,10.36,0,0,0,37.85,0Z"/><polygon class="cls-2" points="17.4 36.84 17.4 30.95 27.59 24.78 36.57 30.81 36.57 41.27 22.76 51.99 23.97 54 36.57 54 36.57 58.96 20.35 58.96 15.93 50.92 30.94 39.12 30.94 34.03 26.92 31.22 17.4 36.84"/><polygon class="cls-2" points="44.42 44.72 44.42 47.64 51.7 47.64 51.7 38.77 57.25 38.77 57.25 47.64 59.77 47.64 59.77 52.8 57.25 52.8 57.25 59.41 51.56 59.41 51.56 52.66 38.86 52.66 38.86 42.54 51.03 26.33 58.44 26.33 44.42 44.72"/></g></g></svg>