<svg xmlns="http://www.w3.org/2000/svg" xmlns:xlink="http://www.w3.org/1999/xlink" viewBox="0 0 75.69 84.19"><defs><style>.cls-1{fill:url(#Безымянный_градиент_32);}.cls-2{fill:#fff;}</style><linearGradient id="Безымянный_градиент_32" x1="479.46" y1="427.56" x2="554.66" y2="427.56" gradientTransform="translate(465.4 -474.96) rotate(90)" gradientUnits="userSpaceOnUse"><stop offset="0" stop-color="#7dba80"/><stop offset="1" stop-color="#428956"/></linearGradient></defs><title>userlevel_21</title><g id="Слой_2" data-name="Слой 2"><g id="Слой_1-2" data-name="Слой 1"><path class="cls-1" d="M37.85,79.69a5.89,5.89,0,0,1-2.93-.78L7.44,63.05A5.89,5.89,0,0,1,4.5,58V26.23a5.88,5.88,0,0,1,2.94-5.08L34.91,5.29a5.85,5.85,0,0,1,5.87,0L68.26,21.15a5.87,5.87,0,0,1,2.93,5.08V58A5.87,5.87,0,0,1,68.26,63L40.78,78.91A5.92,5.92,0,0,1,37.85,79.69Z"/><path class="cls-2" d="M37.85,9a1.38,1.38,0,0,1,.68.18L66,25.05a1.36,1.36,0,0,1,.68,1.18V58A1.39,1.39,0,0,1,66,59.15L38.53,75a1.39,1.39,0,0,1-1.37,0L9.69,59.15A1.37,1.37,0,0,1,9,58V26.23a1.35,1.35,0,0,1,.69-1.18L37.16,9.18A1.39,1.39,0,0,1,37.85,9m0-9a10.4,10.4,0,0,0-5.19,1.39L5.19,17.25a10.41,10.41,0,0,0-5.19,9V58a10.41,10.41,0,0,0,5.19,9L32.66,82.8A10.37,10.37,0,0,0,43,82.8L70.51,66.94a10.4,10.4,0,0,0,5.18-9V26.23a10.4,10.4,0,0,0-5.18-9L43,1.39A10.36,10.36,0,0,0,37.85,0Z"/><polygon class="cls-2" points="20.68 37.07 20.68 31.17 30.87 25.01 39.85 31.04 39.85 41.49 26.04 52.22 27.25 54.23 39.85 54.23 39.85 59.19 23.63 59.19 19.21 51.15 34.22 39.35 34.22 34.26 30.2 31.44 20.68 37.07"/><polygon class="cls-2" points="42.53 33.55 42.53 27.29 46.31 25.34 52.57 29.44 52.57 53.77 56.49 53.77 56.49 58.86 42.53 58.86 42.53 53.77 46.83 53.77 46.83 31.2 42.53 33.55"/></g></g></svg>