<svg xmlns="http://www.w3.org/2000/svg" xmlns:xlink="http://www.w3.org/1999/xlink" viewBox="0 0 75.69 84.38"><defs><style>.cls-1{fill:url(#Безымянный_градиент_73);}.cls-2{fill:#fff;}</style><linearGradient id="Безымянный_градиент_73" x1="4.5" y1="42.19" x2="71.19" y2="42.19" gradientUnits="userSpaceOnUse"><stop offset="0" stop-color="#961775"/><stop offset="1" stop-color="#f21c69"/></linearGradient></defs><title>userlevel_47</title><g id="Слой_2" data-name="Слой 2"><g id="Слой_1-2" data-name="Слой 1"><path class="cls-1" d="M37.85,79.88a5.3,5.3,0,0,1-2.64-.71L7.14,63A5.28,5.28,0,0,1,4.5,58.39V26a5.29,5.29,0,0,1,2.64-4.57L35.21,5.21a5.3,5.3,0,0,1,2.64-.71,5.37,5.37,0,0,1,2.65.71l28.05,16.2A5.29,5.29,0,0,1,71.19,26V58.39A5.28,5.28,0,0,1,68.55,63L40.49,79.17A5.36,5.36,0,0,1,37.85,79.88Z"/><path class="cls-2" d="M37.85,9a.78.78,0,0,1,.39.1L66.3,25.31a.76.76,0,0,1,.39.67V58.39a.77.77,0,0,1-.39.68L38.24,75.27a.79.79,0,0,1-.39.11.77.77,0,0,1-.39-.11L9.39,59.07A.79.79,0,0,1,9,58.39V26a.79.79,0,0,1,.39-.67L37.46,9.1a.76.76,0,0,1,.39-.1m0-9A9.74,9.74,0,0,0,33,1.31L4.89,17.52A9.79,9.79,0,0,0,0,26V58.39a9.79,9.79,0,0,0,4.89,8.47L33,83.07a9.76,9.76,0,0,0,9.77,0L70.8,66.86a9.79,9.79,0,0,0,4.89-8.47V26a9.79,9.79,0,0,0-4.89-8.46L42.74,1.31A9.79,9.79,0,0,0,37.85,0Z"/><polygon class="cls-2" points="40.95 25.15 59.28 26.02 58.66 39.1 50.71 46.81 50.19 57.72 44.81 57.46 45.44 44.12 53.51 36.54 53.79 30.77 40.7 30.28 40.95 25.15"/><polygon class="cls-2" points="21.97 44.54 21.97 47.45 29.25 47.45 29.25 38.59 34.8 38.59 34.8 47.45 37.32 47.45 37.32 52.61 34.8 52.61 34.8 59.23 29.11 59.23 29.11 52.48 16.41 52.48 16.41 42.36 28.58 26.15 35.99 26.15 21.97 44.54"/></g></g></svg>