<svg xmlns="http://www.w3.org/2000/svg" xmlns:xlink="http://www.w3.org/1999/xlink" viewBox="0 0 75.69 87.4"><defs><style>.cls-1{fill:url(#Безымянный_градиент_73);}.cls-2{fill:#fff;}</style><linearGradient id="Безымянный_градиент_73" x1="4.5" y1="43.7" x2="71.19" y2="43.7" gradientUnits="userSpaceOnUse"><stop offset="0" stop-color="#961775"/><stop offset="1" stop-color="#f21c69"/></linearGradient></defs><title>Ресурс 227</title><g id="Слой_2" data-name="Слой 2"><g id="Слой_1-2" data-name="Слой 1"><polygon class="cls-1" points="4.5 62.95 4.5 24.45 37.85 5.2 71.19 24.45 71.19 62.95 37.85 82.21 4.5 62.95"/><path class="cls-2" d="M37.85,10.39,66.69,27.05V60.36L37.85,77,9,60.36V27.05L37.85,10.39M37.85,0l-4.5,2.6L4.5,19.25,0,21.85v43.7l4.5,2.6L33.35,84.8l4.5,2.6,4.5-2.6L71.19,68.15l4.5-2.6V21.85l-4.5-2.6L42.35,2.6,37.85,0Z"/><polygon class="cls-2" points="40.95 26.66 59.28 27.53 58.66 40.61 50.71 48.32 50.19 59.23 44.81 58.97 45.44 45.64 53.51 38.05 53.79 32.28 40.7 31.79 40.95 26.66"/><polygon class="cls-2" points="21.97 46.05 21.97 48.97 29.25 48.97 29.25 40.1 34.8 40.1 34.8 48.97 37.32 48.97 37.32 54.13 34.8 54.13 34.8 60.74 29.11 60.74 29.11 53.99 16.41 53.99 16.41 43.87 28.58 27.66 35.99 27.66 21.97 46.05"/></g></g></svg>