<svg xmlns="http://www.w3.org/2000/svg" xmlns:xlink="http://www.w3.org/1999/xlink" viewBox="0 0 75.69 87.4"><defs><style>.cls-1{fill:url(#Безымянный_градиент_59);}.cls-2{fill:#fff;}</style><linearGradient id="Безымянный_градиент_59" x1="406.46" y1="-45.39" x2="483.47" y2="-45.39" gradientTransform="translate(-7.54 -401.26) rotate(90)" gradientUnits="userSpaceOnUse"><stop offset="0" stop-color="#e28940"/><stop offset="1" stop-color="#e26b50"/></linearGradient></defs><title>Ресурс 230</title><g id="Слой_2" data-name="Слой 2"><g id="Слой_1-2" data-name="Слой 1"><polygon class="cls-1" points="4.5 62.95 4.5 24.45 37.85 5.2 71.19 24.45 71.19 62.95 37.85 82.21 4.5 62.95"/><path class="cls-2" d="M37.85,10.39,66.69,27.05V60.36L37.85,77,9,60.36V27.05L37.85,10.39M37.85,0l-4.5,2.6L4.5,19.25,0,21.85v43.7l4.5,2.6L33.35,84.8l4.5,2.6,4.5-2.6L71.19,68.15l4.5-2.6V21.85l-4.5-2.6L42.35,2.6,37.85,0Z"/><polygon class="cls-2" points="44.87 45.09 44.87 48 52.15 48 52.15 39.14 57.7 39.14 57.7 48 60.22 48 60.22 53.16 57.7 53.16 57.7 59.78 52.01 59.78 52.01 53.03 39.31 53.03 39.31 42.91 51.48 26.7 58.89 26.7 44.87 45.09"/><polygon class="cls-2" points="21.03 46.02 21.03 48.93 28.31 48.93 28.31 40.06 33.87 40.06 33.87 48.93 36.38 48.93 36.38 54.09 33.87 54.09 33.87 60.71 28.18 60.71 28.18 53.96 15.47 53.96 15.47 43.83 27.65 27.62 35.06 27.62 21.03 46.02"/></g></g></svg>