<svg xmlns="http://www.w3.org/2000/svg" xmlns:xlink="http://www.w3.org/1999/xlink" viewBox="0 0 75.69 87.4"><defs><style>.cls-1{fill:url(#Безымянный_градиент_26);}.cls-2{fill:#fff;}</style><linearGradient id="Безымянный_градиент_26" x1="-83.41" y1="75.12" x2="-6.4" y2="75.12" gradientTransform="translate(112.96 88.6) rotate(90)" gradientUnits="userSpaceOnUse"><stop offset="0" stop-color="#649392"/><stop offset="1" stop-color="#6ce5e1"/></linearGradient></defs><title>Ресурс 256</title><g id="Слой_2" data-name="Слой 2"><g id="Слой_1-2" data-name="Слой 1"><polygon class="cls-1" points="4.5 62.95 4.5 24.45 37.85 5.2 71.19 24.45 71.19 62.95 37.85 82.21 4.5 62.95"/><path class="cls-2" d="M37.85,10.39,66.69,27.05V60.36L37.85,77,9,60.36V27.05L37.85,10.39M37.85,0l-4.5,2.6L4.5,19.25,0,21.85v43.7l4.5,2.6L33.35,84.8l4.5,2.6,4.5-2.6L71.19,68.15l4.5-2.6V21.85l-4.5-2.6L42.35,2.6,37.85,0Z"/><polygon class="cls-2" points="19.11 34.58 19.11 28.32 22.9 26.36 29.16 30.47 29.16 54.8 33.07 54.8 33.07 59.89 19.11 59.89 19.11 54.8 23.42 54.8 23.42 32.23 19.11 34.58"/><path class="cls-2" d="M53.39,42.22l3.18-1.06V30.56l-10.2-4.24L36.16,30.56V40.5l4.38,2.12-5.17,2.25v11.4l11,4.77L57.24,56.4V44ZM41.86,33.74l4.44-1.59,4.57,2.12v3.45L46.3,39.44l-4.44-2.52Zm9.68,19.35L47,54.94,41.2,52.29V47.92L47,45.67l4.51,2.25Z"/></g></g></svg>