<svg xmlns="http://www.w3.org/2000/svg" xmlns:xlink="http://www.w3.org/1999/xlink" viewBox="0 0 75.69 87.4"><defs><style>.cls-1{fill:url(#Безымянный_градиент_59);}.cls-2{fill:#fff;}</style><linearGradient id="Безымянный_градиент_59" x1="316.77" y1="-138.39" x2="393.78" y2="-138.39" gradientTransform="translate(-100.55 -311.58) rotate(90)" gradientUnits="userSpaceOnUse"><stop offset="0" stop-color="#e28940"/><stop offset="1" stop-color="#e26b50"/></linearGradient></defs><title>Ресурс 229</title><g id="Слой_2" data-name="Слой 2"><g id="Слой_1-2" data-name="Слой 1"><polygon class="cls-1" points="4.5 62.95 4.5 24.45 37.85 5.2 71.19 24.45 71.19 62.95 37.85 82.21 4.5 62.95"/><path class="cls-2" d="M37.85,10.39,66.69,27.05V60.36L37.85,77,9,60.36V27.05L37.85,10.39M37.85,0l-4.5,2.6L4.5,19.25,0,21.85v43.7l4.5,2.6L33.35,84.8l4.5,2.6,4.5-2.6L71.19,68.15l4.5-2.6V21.85l-4.5-2.6L42.35,2.6,37.85,0Z"/><polygon class="cls-2" points="57.78 27.58 40.84 27.58 40.84 44.78 46.15 46.55 51.96 43.07 53.86 44.52 53.86 52.37 52.72 53.88 40.84 49.33 40.84 55.02 53.1 60.08 59.3 54.14 59.3 41.36 52.2 36.49 46.53 40.48 46.53 32.64 57.78 32.64 57.78 27.58"/><polygon class="cls-2" points="21.95 45.15 21.95 48.06 29.23 48.06 29.23 39.19 34.79 39.19 34.79 48.06 37.3 48.06 37.3 53.22 34.79 53.22 34.79 59.83 29.1 59.83 29.1 53.09 16.39 53.09 16.39 42.96 28.57 26.75 35.98 26.75 21.95 45.15"/></g></g></svg>