<svg xmlns="http://www.w3.org/2000/svg" viewBox="0 0 75.69 87.4"><defs><style>.cls-1{fill:#7dbcbc;}.cls-2{fill:#fff;}</style></defs><title>Ресурс 261</title><g id="Слой_2" data-name="Слой 2"><g id="Слой_1-2" data-name="Слой 1"><polygon class="cls-1" points="4.5 62.95 4.5 24.45 37.85 5.2 71.19 24.45 71.19 62.95 37.85 82.21 4.5 62.95"/><path class="cls-2" d="M37.85,10.39,66.69,27.05V60.36L37.85,77,9,60.36V27.05L37.85,10.39M37.85,0l-4.5,2.6L4.5,19.25,0,21.85v43.7l4.5,2.6L33.35,84.8l4.5,2.6,4.5-2.6L71.19,68.15l4.5-2.6V21.85l-4.5-2.6L42.35,2.6,37.85,0Z"/><polygon class="cls-2" points="20.71 34.09 20.71 27.83 24.49 25.87 30.75 29.98 30.75 54.31 34.67 54.31 34.67 59.4 20.71 59.4 20.71 54.31 25.01 54.31 25.01 31.74 20.71 34.09"/><polygon class="cls-2" points="36.13 32.72 36.13 27.87 54.98 27.87 54.98 35.86 46.73 40.31 54.98 43.06 54.98 54.59 46.21 61.53 36.13 57.21 36.13 51.31 45.55 55.24 49.22 52.36 49.22 46.73 40.32 43.2 40.32 37.3 49.88 32.98 36.13 32.72"/></g></g></svg>