<svg xmlns="http://www.w3.org/2000/svg" xmlns:xlink="http://www.w3.org/1999/xlink" viewBox="0 0 75.69 87.4"><defs><style>.cls-1{fill:url(#Безымянный_градиент_59);}.cls-2{fill:#fff;}</style><linearGradient id="Безымянный_градиент_59" x1="4.5" y1="43.7" x2="71.19" y2="43.7" gradientUnits="userSpaceOnUse"><stop offset="0" stop-color="#e28940"/><stop offset="1" stop-color="#e26b50"/></linearGradient></defs><title>Ресурс 233</title><g id="Слой_2" data-name="Слой 2"><g id="Слой_1-2" data-name="Слой 1"><polygon class="cls-1" points="4.5 62.95 4.5 24.45 37.85 5.2 71.19 24.45 71.19 62.95 37.85 82.21 4.5 62.95"/><path class="cls-2" d="M37.85,10.39,66.69,27.05V60.36L37.85,77,9,60.36V27.05L37.85,10.39M37.85,0l-4.5,2.6L4.5,19.25,0,21.85v43.7l4.5,2.6L33.35,84.8l4.5,2.6,4.5-2.6L71.19,68.15l4.5-2.6V21.85l-4.5-2.6L42.35,2.6,37.85,0Z"/><polygon class="cls-2" points="42.87 35.16 42.87 28.9 46.65 26.94 52.91 31.05 52.91 55.38 56.83 55.38 56.83 60.46 42.87 60.46 42.87 55.38 47.17 55.38 47.17 32.81 42.87 35.16"/><polygon class="cls-2" points="24.43 45.37 24.43 48.28 31.7 48.28 31.7 39.42 37.26 39.42 37.26 48.28 39.78 48.28 39.78 53.44 37.26 53.44 37.26 60.06 31.57 60.06 31.57 53.31 18.87 53.31 18.87 43.19 31.04 26.98 38.45 26.98 24.43 45.37"/></g></g></svg>