<svg xmlns="http://www.w3.org/2000/svg" xmlns:xlink="http://www.w3.org/1999/xlink" viewBox="0 0 75.69 87.4"><defs><style>.cls-1{fill:url(#Безымянный_градиент_32);}.cls-2{fill:#fff;}</style><linearGradient id="Безымянный_градиент_32" x1="381.84" y1="332.45" x2="458.85" y2="332.45" gradientTransform="translate(370.3 -376.65) rotate(90)" gradientUnits="userSpaceOnUse"><stop offset="0" stop-color="#7dba80"/><stop offset="1" stop-color="#428956"/></linearGradient></defs><title>Ресурс 252</title><g id="Слой_2" data-name="Слой 2"><g id="Слой_1-2" data-name="Слой 1"><polygon class="cls-1" points="4.5 62.95 4.5 24.45 37.85 5.2 71.19 24.45 71.19 62.95 37.85 82.21 4.5 62.95"/><path class="cls-2" d="M37.85,10.39,66.69,27.05V60.36L37.85,77,9,60.36V27.05L37.85,10.39M37.85,0l-4.5,2.6L4.5,19.25,0,21.85v43.7l4.5,2.6L33.35,84.8l4.5,2.6,4.5-2.6L71.19,68.15l4.5-2.6V21.85l-4.5-2.6L42.35,2.6,37.85,0Z"/><polygon class="cls-2" points="18.32 38.67 18.32 32.78 28.51 26.61 37.49 32.64 37.49 43.1 23.68 53.82 24.89 55.83 37.49 55.83 37.49 60.79 21.27 60.79 16.85 52.75 31.86 40.95 31.86 35.86 27.84 33.05 18.32 38.67"/><polygon class="cls-2" points="39.94 38.84 39.94 33.02 49.99 26.94 58.85 32.89 58.85 43.2 45.23 53.77 46.42 55.76 58.85 55.76 58.85 60.65 42.85 60.65 38.49 52.72 53.29 41.08 53.29 36.06 49.33 33.28 39.94 38.84"/></g></g></svg>