<svg xmlns="http://www.w3.org/2000/svg" viewBox="0 0 75.69 87.4"><defs><style>.cls-1{fill:#7dbcbc;}.cls-2{fill:#fff;}</style></defs><title>Ресурс 262</title><g id="Слой_2" data-name="Слой 2"><g id="Слой_1-2" data-name="Слой 1"><polygon class="cls-1" points="4.5 62.95 4.5 24.45 37.85 5.2 71.19 24.45 71.19 62.95 37.85 82.21 4.5 62.95"/><path class="cls-2" d="M37.85,10.39,66.69,27.05V60.36L37.85,77,9,60.36V27.05L37.85,10.39M37.85,0l-4.5,2.6L4.5,19.25,0,21.85v43.7l4.5,2.6L33.35,84.8l4.5,2.6,4.5-2.6L71.19,68.15l4.5-2.6V21.85l-4.5-2.6L42.35,2.6,37.85,0Z"/><polygon class="cls-2" points="20.25 35.2 20.25 28.94 24.04 26.98 30.3 31.09 30.3 55.42 34.21 55.42 34.21 60.51 20.25 60.51 20.25 55.42 24.56 55.42 24.56 32.85 20.25 35.2"/><polygon class="cls-2" points="36.54 38.74 36.54 32.93 46.58 26.85 55.44 32.8 55.44 43.11 41.83 53.68 43.02 55.66 55.44 55.66 55.44 60.55 39.45 60.55 35.08 52.62 49.89 40.99 49.89 35.97 45.92 33.19 36.54 38.74"/></g></g></svg>