<svg xmlns="http://www.w3.org/2000/svg" xmlns:xlink="http://www.w3.org/1999/xlink" viewBox="0 0 75.69 87.4"><defs><style>.cls-1{fill:url(#Безымянный_градиент_47);}.cls-2{fill:#fff;}</style><linearGradient id="Безымянный_градиент_47" x1="-357.67" y1="-401.11" x2="-280.66" y2="-401.11" gradientTransform="translate(-363.26 362.87) rotate(90)" gradientUnits="userSpaceOnUse"><stop offset="0" stop-color="#c3e264"/><stop offset="1" stop-color="#87b236"/></linearGradient></defs><title>Ресурс 245</title><g id="Слой_2" data-name="Слой 2"><g id="Слой_1-2" data-name="Слой 1"><polygon class="cls-1" points="4.5 62.95 4.5 24.45 37.85 5.2 71.19 24.45 71.19 62.95 37.85 82.21 4.5 62.95"/><path class="cls-2" d="M37.85,10.39,66.69,27.05V60.36L37.85,77,9,60.36V27.05L37.85,10.39M37.85,0l-4.5,2.6L4.5,19.25,0,21.85v43.7l4.5,2.6L33.35,84.8l4.5,2.6,4.5-2.6L71.19,68.15l4.5-2.6V21.85l-4.5-2.6L42.35,2.6,37.85,0Z"/><polygon class="cls-2" points="17.8 37.99 17.8 32.09 27.99 25.93 36.97 31.96 36.97 42.41 23.16 53.13 24.37 55.15 36.97 55.15 36.97 60.11 20.75 60.11 16.32 52.06 31.34 40.27 31.34 35.17 27.32 32.36 17.8 37.99"/><path class="cls-2" d="M46.57,26.55l-6.26,5.87V46l7.2,5.34,6.26-4.14-.13,5.2L51,55.35l-8.8-2.54v6l9.73,2.67,7.47-7.33V31.35Zm7.2,14.27L48,44.68l-2-1.09V34.15l1.6-1.73,6.13,2.8Z"/></g></g></svg>