<svg xmlns="http://www.w3.org/2000/svg" xmlns:xlink="http://www.w3.org/1999/xlink" viewBox="0 0 75.69 87.4"><defs><style>.cls-1{fill:url(#Безымянный_градиент_59);}.cls-2{fill:#fff;}</style><linearGradient id="Безымянный_градиент_59" x1="4.5" y1="43.7" x2="71.19" y2="43.7" gradientUnits="userSpaceOnUse"><stop offset="0" stop-color="#e28940"/><stop offset="1" stop-color="#e26b50"/></linearGradient></defs><title>Ресурс 231</title><g id="Слой_2" data-name="Слой 2"><g id="Слой_1-2" data-name="Слой 1"><polygon class="cls-1" points="4.5 62.95 4.5 24.45 37.85 5.2 71.19 24.45 71.19 62.95 37.85 82.21 4.5 62.95"/><path class="cls-2" d="M37.85,10.39,66.69,27.05V60.36L37.85,77,9,60.36V27.05L37.85,10.39M37.85,0l-4.5,2.6L4.5,19.25,0,21.85v43.7l4.5,2.6L33.35,84.8l4.5,2.6,4.5-2.6L71.19,68.15l4.5-2.6V21.85l-4.5-2.6L42.35,2.6,37.85,0Z"/><polygon class="cls-2" points="40.31 32.4 40.31 27.56 59.17 27.56 59.17 35.55 50.92 40 59.17 42.75 59.17 54.27 50.4 61.22 40.31 56.89 40.31 51 49.74 54.93 53.41 52.05 53.41 46.42 44.51 42.88 44.51 36.99 54.06 32.66 40.31 32.4"/><polygon class="cls-2" points="22.08 44.58 22.08 47.49 29.36 47.49 29.36 38.63 34.91 38.63 34.91 47.49 37.43 47.49 37.43 52.65 34.91 52.65 34.91 59.27 29.22 59.27 29.22 52.52 16.52 52.52 16.52 42.4 28.7 26.19 36.1 26.19 22.08 44.58"/></g></g></svg>