<svg xmlns="http://www.w3.org/2000/svg" xmlns:xlink="http://www.w3.org/1999/xlink" viewBox="0 0 75.69 87.4"><defs><style>.cls-1{fill:url(#Безымянный_градиент_73);}.cls-2{fill:#fff;}</style><linearGradient id="Безымянный_градиент_73" x1="4.5" y1="43.7" x2="71.19" y2="43.7" gradientUnits="userSpaceOnUse"><stop offset="0" stop-color="#961775"/><stop offset="1" stop-color="#f21c69"/></linearGradient></defs><title>Ресурс 228</title><g id="Слой_2" data-name="Слой 2"><g id="Слой_1-2" data-name="Слой 1"><polygon class="cls-1" points="4.5 62.95 4.5 24.45 37.85 5.2 71.19 24.45 71.19 62.95 37.85 82.21 4.5 62.95"/><path class="cls-2" d="M37.85,10.39,66.69,27.05V60.36L37.85,77,9,60.36V27.05L37.85,10.39M37.85,0l-4.5,2.6L4.5,19.25,0,21.85v43.7l4.5,2.6L33.35,84.8l4.5,2.6,4.5-2.6L71.19,68.15l4.5-2.6V21.85l-4.5-2.6L42.35,2.6,37.85,0Z"/><path class="cls-2" d="M51.68,37.19l-6.13,4.09v-5L48,33.62l8.69,1.91-.13-5.36-9.45-2.56-7.15,7.16V56.35l12.39,4.73,6.26-5.88v-13Zm1.4,16.1-1.53,1.4-6-2.3V47.16l5.36-3.22,2.17,1.43Z"/><polygon class="cls-2" points="22.68 44.72 22.68 47.63 29.95 47.63 29.95 38.77 35.51 38.77 35.51 47.63 38.03 47.63 38.03 52.79 35.51 52.79 35.51 59.41 29.82 59.41 29.82 52.66 17.12 52.66 17.12 42.54 29.29 26.33 36.7 26.33 22.68 44.72"/></g></g></svg>