<svg xmlns="http://www.w3.org/2000/svg" xmlns:xlink="http://www.w3.org/1999/xlink" viewBox="0 0 75.69 87.4"><defs><style>.cls-1{fill:url(#Безымянный_градиент_51);}.cls-2{fill:#fff;}</style><linearGradient id="Безымянный_градиент_51" x1="394.67" y1="138.46" x2="471.68" y2="138.46" gradientTransform="translate(176.3 -389.47) rotate(90)" gradientUnits="userSpaceOnUse"><stop offset="0" stop-color="#e0d465"/><stop offset="1" stop-color="#afa137"/></linearGradient></defs><title>Ресурс 241</title><g id="Слой_2" data-name="Слой 2"><g id="Слой_1-2" data-name="Слой 1"><polygon class="cls-1" points="4.5 62.95 4.5 24.45 37.85 5.2 71.19 24.45 71.19 62.95 37.85 82.21 4.5 62.95"/><path class="cls-2" d="M37.85,10.39,66.69,27.05V60.36L37.85,77,9,60.36V27.05L37.85,10.39M37.85,0l-4.5,2.6L4.5,19.25,0,21.85v43.7l4.5,2.6L33.35,84.8l4.5,2.6,4.5-2.6L71.19,68.15l4.5-2.6V21.85l-4.5-2.6L42.35,2.6,37.85,0Z"/><polygon class="cls-2" points="17.28 31.63 17.28 26.79 36.14 26.79 36.14 34.77 27.89 39.23 36.14 41.98 36.14 53.5 27.36 60.44 17.28 56.12 17.28 50.23 26.71 54.16 30.38 51.27 30.38 45.64 21.47 42.11 21.47 36.22 31.03 31.89 17.28 31.63"/><polygon class="cls-2" points="39.55 31.81 39.55 26.96 58.41 26.96 58.41 34.95 50.16 39.4 58.41 42.15 58.41 53.68 49.64 60.62 39.55 56.3 39.55 50.4 48.98 54.33 52.65 51.45 52.65 45.82 43.74 42.28 43.74 36.39 53.3 32.07 39.55 31.81"/></g></g></svg>