<svg xmlns="http://www.w3.org/2000/svg" xmlns:xlink="http://www.w3.org/1999/xlink" viewBox="0 0 75.69 87.4"><defs><style>.cls-1{fill:url(#Безымянный_градиент_32);}.cls-2{fill:#fff;}</style><linearGradient id="Безымянный_градиент_32" x1="291.86" y1="241.48" x2="368.87" y2="241.48" gradientTransform="translate(279.33 -286.66) rotate(90)" gradientUnits="userSpaceOnUse"><stop offset="0" stop-color="#7dba80"/><stop offset="1" stop-color="#428956"/></linearGradient></defs><title>Ресурс 251</title><g id="Слой_2" data-name="Слой 2"><g id="Слой_1-2" data-name="Слой 1"><polygon class="cls-1" points="4.5 62.95 4.5 24.45 37.85 5.2 71.19 24.45 71.19 62.95 37.85 82.21 4.5 62.95"/><path class="cls-2" d="M37.85,10.39,66.69,27.05V60.36L37.85,77,9,60.36V27.05L37.85,10.39M37.85,0l-4.5,2.6L4.5,19.25,0,21.85v43.7l4.5,2.6L33.35,84.81l4.5,2.59,4.5-2.59L71.19,68.15l4.5-2.6V21.85l-4.5-2.6L42.35,2.6,37.85,0Z"/><polygon class="cls-2" points="18.76 37.69 18.76 31.8 28.94 25.63 37.92 31.66 37.92 42.12 24.12 52.84 25.32 54.85 37.92 54.85 37.92 59.81 21.7 59.81 17.28 51.77 32.29 39.97 32.29 34.88 28.27 32.06 18.76 37.69"/><polygon class="cls-2" points="39.55 32.96 39.55 28.12 58.41 28.12 58.41 36.1 50.16 40.56 58.41 43.31 58.41 54.83 49.64 61.77 39.55 57.45 39.55 51.56 48.98 55.49 52.65 52.61 52.65 46.97 43.74 43.44 43.74 37.55 53.3 33.22 39.55 32.96"/></g></g></svg>