<svg xmlns="http://www.w3.org/2000/svg" xmlns:xlink="http://www.w3.org/1999/xlink" viewBox="0 0 75.69 87.4"><defs><style>.cls-1{fill:url(#Безымянный_градиент_47);}.cls-2{fill:#fff;}</style><linearGradient id="Безымянный_градиент_47" x1="-75.26" y1="-125.91" x2="1.75" y2="-125.91" gradientTransform="translate(-88.07 80.46) rotate(90)" gradientUnits="userSpaceOnUse"><stop offset="0" stop-color="#c3e264"/><stop offset="1" stop-color="#87b236"/></linearGradient></defs><title>Ресурс 248</title><g id="Слой_2" data-name="Слой 2"><g id="Слой_1-2" data-name="Слой 1"><polygon class="cls-1" points="4.5 62.95 4.5 24.45 37.85 5.2 71.19 24.45 71.19 62.95 37.85 82.21 4.5 62.95"/><path class="cls-2" d="M37.85,10.39,66.69,27.05V60.36L37.85,77,9,60.36V27.05L37.85,10.39M37.85,0l-4.5,2.6L4.5,19.25,0,21.85v43.7l4.5,2.6L33.35,84.81l4.5,2.59,4.5-2.59L71.19,68.15l4.5-2.6V21.85l-4.5-2.6L42.35,2.6,37.85,0Z"/><polygon class="cls-2" points="18.45 38.17 18.45 32.28 28.64 26.11 37.62 32.14 37.62 42.6 23.82 53.32 25.02 55.33 37.62 55.33 37.62 60.29 21.4 60.29 16.98 52.25 31.99 40.45 31.99 35.36 27.97 32.54 18.45 38.17"/><path class="cls-2" d="M51.82,37.41,45.69,41.5v-5l2.42-2.69,8.69,1.92-.13-5.37-9.45-2.55L40.07,35V56.57l12.39,4.72,6.25-5.87v-13Zm1.4,16.09-1.53,1.41-6-2.3V47.37l5.36-3.21,2.17,1.42Z"/></g></g></svg>