<svg xmlns="http://www.w3.org/2000/svg" xmlns:xlink="http://www.w3.org/1999/xlink" viewBox="0 0 75.69 87.4"><defs><style>.cls-1{fill:url(#Безымянный_градиент_47);}.cls-2{fill:#fff;}</style><linearGradient id="Безымянный_градиент_47" x1="-167.5" y1="-219.59" x2="-90.48" y2="-219.59" gradientTransform="translate(-181.74 172.69) rotate(90)" gradientUnits="userSpaceOnUse"><stop offset="0" stop-color="#c3e264"/><stop offset="1" stop-color="#87b236"/></linearGradient></defs><title>Ресурс 247</title><g id="Слой_2" data-name="Слой 2"><g id="Слой_1-2" data-name="Слой 1"><polygon class="cls-1" points="4.5 62.95 4.5 24.45 37.85 5.2 71.19 24.45 71.19 62.95 37.85 82.21 4.5 62.95"/><path class="cls-2" d="M37.85,10.39,66.69,27.05V60.36L37.85,77,9,60.36V27.05L37.85,10.39M37.85,0l-4.5,2.6L4.5,19.25,0,21.85v43.7l4.5,2.6L33.35,84.8l4.5,2.6,4.5-2.6L71.19,68.15l4.5-2.6V21.85l-4.5-2.6L42.35,2.6,37.85,0Z"/><polygon class="cls-2" points="18.45 38.45 18.45 32.55 28.64 26.39 37.62 32.42 37.62 42.87 23.81 53.6 25.02 55.61 37.62 55.61 37.62 60.57 21.4 60.57 16.98 52.52 31.99 40.73 31.99 35.63 27.97 32.82 18.45 38.45"/><polygon class="cls-2" points="40.36 28.93 58.72 28.93 58.72 42.02 51.14 50.1 51.14 61.02 45.75 61.02 45.75 47.67 53.45 39.71 53.45 33.93 40.36 34.06 40.36 28.93"/></g></g></svg>