<svg xmlns="http://www.w3.org/2000/svg" xmlns:xlink="http://www.w3.org/1999/xlink" viewBox="0 0 75.69 83.81"><defs><style>.cls-1{fill:url(#Безымянный_градиент_47);}.cls-2{fill:#fff;}</style><linearGradient id="Безымянный_градиент_47" x1="-262.29" y1="-316.15" x2="-187.49" y2="-316.15" gradientTransform="translate(-278.3 266.79) rotate(90)" gradientUnits="userSpaceOnUse"><stop offset="0" stop-color="#c3e264"/><stop offset="1" stop-color="#87b236"/></linearGradient></defs><title>userlevel_28</title><g id="Слой_2" data-name="Слой 2"><g id="Слой_1-2" data-name="Слой 1"><path class="cls-1" d="M37.85,79.31a6.92,6.92,0,0,1-3.45-.89L7.94,63.15a7.12,7.12,0,0,1-3.44-6V26.63a7.1,7.1,0,0,1,3.44-6L34.4,5.39a7.11,7.11,0,0,1,6.89,0L67.75,20.66a7.1,7.1,0,0,1,3.44,6V57.18a7.1,7.1,0,0,1-3.44,6L41.29,78.42A6.86,6.86,0,0,1,37.85,79.31Z"/><path class="cls-2" d="M37.85,9A2.43,2.43,0,0,1,39,9.28L65.5,24.56a2.64,2.64,0,0,1,1.19,2.07V57.18a2.64,2.64,0,0,1-1.19,2.07L39,74.52a2.61,2.61,0,0,1-2.39,0L10.2,59.25A2.65,2.65,0,0,1,9,57.18V26.63a2.65,2.65,0,0,1,1.2-2.07L36.65,9.28A2.45,2.45,0,0,1,37.85,9m0-9a11.46,11.46,0,0,0-5.7,1.49L5.7,16.77A11.56,11.56,0,0,0,0,26.63V57.18A11.57,11.57,0,0,0,5.7,67L32.15,82.32a11.63,11.63,0,0,0,11.39,0L70,67a11.56,11.56,0,0,0,5.69-9.86V26.63A11.58,11.58,0,0,0,70,16.76L43.54,1.49A11.45,11.45,0,0,0,37.85,0Z"/><polygon class="cls-2" points="16.65 36.06 16.65 30.16 26.84 24 35.82 30.03 35.82 40.48 22.02 51.21 23.22 53.22 35.82 53.22 35.82 58.18 19.6 58.18 15.18 50.13 30.19 38.34 30.19 33.25 26.17 30.43 16.65 36.06"/><path class="cls-2" d="M56.67,41l3.18-1.06V29.33l-10.2-4.24L39.44,29.33v9.94l4.38,2.12-5.17,2.25V55l11,4.77,10.86-4.64V42.78ZM45.14,32.51l4.44-1.59L54.15,33v3.45l-4.57,1.72-4.44-2.52Zm9.68,19.35-4.51,1.85-5.83-2.65V46.69l5.83-2.25,4.51,2.25Z"/></g></g></svg>