<svg xmlns="http://www.w3.org/2000/svg" xmlns:xlink="http://www.w3.org/1999/xlink" viewBox="0 0 75.69 84.19"><defs><style>.cls-1{fill:url(#Безымянный_градиент_59);}.cls-2{fill:#fff;}</style><linearGradient id="Безымянный_градиент_59" x1="4.5" y1="42.09" x2="71.19" y2="42.09" gradientUnits="userSpaceOnUse"><stop offset="0" stop-color="#e28940"/><stop offset="1" stop-color="#e26b50"/></linearGradient></defs><title>userlevel_41</title><g id="Слой_2" data-name="Слой 2"><g id="Слой_1-2" data-name="Слой 1"><path class="cls-1" d="M37.85,79.69a5.84,5.84,0,0,1-2.94-.79L7.44,63.05A5.91,5.91,0,0,1,4.5,58V26.24a5.91,5.91,0,0,1,2.94-5.09L34.9,5.29a5.88,5.88,0,0,1,5.89,0L68.25,21.14a5.92,5.92,0,0,1,2.94,5.1V58a5.89,5.89,0,0,1-2.94,5.1L40.79,78.9A5.86,5.86,0,0,1,37.85,79.69Z"/><path class="cls-2" d="M37.85,9a1.33,1.33,0,0,1,.69.19L66,25a1.39,1.39,0,0,1,.69,1.2V58a1.38,1.38,0,0,1-.69,1.2L38.54,75a1.33,1.33,0,0,1-.69.19,1.37,1.37,0,0,1-.7-.19L9.69,59.15A1.38,1.38,0,0,1,9,58V26.24A1.39,1.39,0,0,1,9.69,25L37.15,9.19a1.37,1.37,0,0,1,.7-.19m0-9a10.44,10.44,0,0,0-5.2,1.39L5.19,17.25a10.41,10.41,0,0,0-5.19,9V58a10.41,10.41,0,0,0,5.19,9L32.65,82.8A10.4,10.4,0,0,0,43,82.8L70.5,66.94a10.41,10.41,0,0,0,5.19-9V26.24a10.41,10.41,0,0,0-5.19-9L43,1.39A10.4,10.4,0,0,0,37.85,0Z"/><polygon class="cls-2" points="42.87 33.55 42.87 27.29 46.65 25.33 52.91 29.44 52.91 53.77 56.83 53.77 56.83 58.86 42.87 58.86 42.87 53.77 47.17 53.77 47.17 31.2 42.87 33.55"/><polygon class="cls-2" points="24.43 43.77 24.43 46.68 31.7 46.68 31.7 37.81 37.26 37.81 37.26 46.68 39.78 46.68 39.78 51.84 37.26 51.84 37.26 58.45 31.57 58.45 31.57 51.7 18.87 51.7 18.87 41.58 31.04 25.37 38.45 25.37 24.43 43.77"/></g></g></svg>