<svg xmlns="http://www.w3.org/2000/svg" viewBox="0 0 75.69 84.19"><defs><style>.cls-1{fill:#949fb2;}.cls-2{fill:#fff;}</style></defs><title>userlevel_2</title><g id="Слой_2" data-name="Слой 2"><g id="Слой_1-2" data-name="Слой 1"><path class="cls-1" d="M37.85,79.69a5.93,5.93,0,0,1-2.94-.78L7.44,63A5.86,5.86,0,0,1,4.5,58V26.23a5.88,5.88,0,0,1,2.94-5.08L34.91,5.29a5.85,5.85,0,0,1,5.87,0L68.26,21.15a5.87,5.87,0,0,1,2.93,5.08V58A5.87,5.87,0,0,1,68.26,63L40.78,78.91A5.89,5.89,0,0,1,37.85,79.69Z"/><path class="cls-2" d="M37.85,9a1.38,1.38,0,0,1,.68.18L66,25.05a1.36,1.36,0,0,1,.68,1.18V58A1.39,1.39,0,0,1,66,59.15L38.53,75a1.39,1.39,0,0,1-1.37,0L9.69,59.15A1.37,1.37,0,0,1,9,58V26.23a1.35,1.35,0,0,1,.69-1.18L37.16,9.18A1.39,1.39,0,0,1,37.85,9m0-9a10.4,10.4,0,0,0-5.19,1.39L5.19,17.25a10.41,10.41,0,0,0-5.19,9V58a10.41,10.41,0,0,0,5.19,9L32.66,82.8A10.37,10.37,0,0,0,43,82.8L70.51,66.94a10.4,10.4,0,0,0,5.18-9V26.23a10.4,10.4,0,0,0-5.18-9L43,1.39A10.36,10.36,0,0,0,37.85,0Z"/><polygon class="cls-2" points="28.32 36.68 28.32 30.33 39.29 23.69 48.97 30.18 48.97 41.45 34.09 53 35.39 55.17 48.97 55.17 48.97 60.51 31.49 60.51 26.73 51.84 42.9 39.14 42.9 33.65 38.57 30.62 28.32 36.68"/></g></g></svg>