<svg xmlns="http://www.w3.org/2000/svg" xmlns:xlink="http://www.w3.org/1999/xlink" viewBox="0 0 75.69 84.19"><defs><style>.cls-1{fill:url(#Безымянный_градиент_51);}.cls-2{fill:#fff;}</style><linearGradient id="Безымянный_градиент_51" x1="395.58" y1="136.85" x2="470.77" y2="136.85" gradientTransform="translate(174.7 -391.08) rotate(90)" gradientUnits="userSpaceOnUse"><stop offset="0" stop-color="#e0d465"/><stop offset="1" stop-color="#afa137"/></linearGradient></defs><title>userlevel_33</title><g id="Слой_2" data-name="Слой 2"><g id="Слой_1-2" data-name="Слой 1"><path class="cls-1" d="M37.85,79.69a5.93,5.93,0,0,1-2.94-.78L7.44,63A5.88,5.88,0,0,1,4.5,58V26.23a5.88,5.88,0,0,1,2.93-5.08L34.91,5.29a5.88,5.88,0,0,1,5.87,0L68.26,21.15a5.88,5.88,0,0,1,2.93,5.08V58a5.89,5.89,0,0,1-2.94,5.09L40.78,78.91A5.89,5.89,0,0,1,37.85,79.69Z"/><path class="cls-2" d="M37.85,9a1.38,1.38,0,0,1,.68.18L66,25.05a1.36,1.36,0,0,1,.68,1.18V58A1.39,1.39,0,0,1,66,59.15L38.53,75a1.39,1.39,0,0,1-1.37,0L9.69,59.15A1.37,1.37,0,0,1,9,58V26.23a1.35,1.35,0,0,1,.69-1.18L37.16,9.18A1.39,1.39,0,0,1,37.85,9m0-9a10.4,10.4,0,0,0-5.19,1.39L5.19,17.25a10.41,10.41,0,0,0-5.19,9V58a10.39,10.39,0,0,0,5.19,9L32.66,82.8A10.37,10.37,0,0,0,43,82.8L70.51,66.94a10.39,10.39,0,0,0,5.18-9V26.23a10.4,10.4,0,0,0-5.18-9L43,1.39A10.36,10.36,0,0,0,37.85,0Z"/><polygon class="cls-2" points="17.28 30.03 17.28 25.18 36.14 25.18 36.14 33.17 27.89 37.62 36.14 40.37 36.14 51.9 27.36 58.84 17.28 54.52 17.28 48.62 26.71 52.55 30.38 49.67 30.38 44.04 21.47 40.5 21.47 34.61 31.03 30.29 17.28 30.03"/><polygon class="cls-2" points="39.55 30.2 39.55 25.36 58.41 25.36 58.41 33.34 50.16 37.8 58.41 40.55 58.41 52.07 49.64 59.01 39.55 54.69 39.55 48.8 48.98 52.73 52.65 49.85 52.65 44.21 43.74 40.68 43.74 34.78 53.3 30.46 39.55 30.2"/></g></g></svg>