<svg xmlns="http://www.w3.org/2000/svg" xmlns:xlink="http://www.w3.org/1999/xlink" viewBox="0 0 75.69 84.38"><defs><style>.cls-1{fill:url(#Безымянный_градиент_94);}.cls-2{fill:#fff;}</style><linearGradient id="Безымянный_градиент_94" x1="4.5" y1="42.19" x2="71.19" y2="42.19" gradientUnits="userSpaceOnUse"><stop offset="0" stop-color="#db1638"/><stop offset="0.99" stop-color="#db643a"/></linearGradient></defs><title>userlevel_50</title><g id="Слой_2" data-name="Слой 2"><g id="Слой_1-2" data-name="Слой 1"><path class="cls-1" d="M37.85,79.88a5.29,5.29,0,0,1-2.64-.7L7.14,63A5.3,5.3,0,0,1,4.5,58.39V26a5.29,5.29,0,0,1,2.64-4.57L35.21,5.21a5.24,5.24,0,0,1,5.27,0l28.07,16.2A5.29,5.29,0,0,1,71.19,26V58.39A5.29,5.29,0,0,1,68.55,63L40.48,79.17A5.29,5.29,0,0,1,37.85,79.88Z"/><path class="cls-2" d="M37.85,9a.78.78,0,0,1,.39.1L66.3,25.31a.76.76,0,0,1,.39.67V58.39a.77.77,0,0,1-.39.68L38.24,75.27a.79.79,0,0,1-.39.11.77.77,0,0,1-.39-.11L9.39,59.07A.79.79,0,0,1,9,58.39V26a.79.79,0,0,1,.39-.67L37.46,9.1a.76.76,0,0,1,.39-.1m0-9A9.74,9.74,0,0,0,33,1.31L4.89,17.52A9.79,9.79,0,0,0,0,26V58.39a9.79,9.79,0,0,0,4.89,8.47L33,83.07a9.76,9.76,0,0,0,9.77,0L70.8,66.86a9.79,9.79,0,0,0,4.89-8.47V26a9.79,9.79,0,0,0-4.89-8.46L42.74,1.31A9.79,9.79,0,0,0,37.85,0Z"/><path class="cls-2" d="M54,25H43.37l-6.06,6.82V50.51l5.81,7H53.47l6.06-7V31.82Zm-.13,23.75-3,3.53H46.27l-3.41-3.66V34l3.67-4.23h3.91L53.85,34Z"/><polygon class="cls-2" points="33.1 26.87 16.16 26.87 16.16 44.07 21.47 45.84 27.29 42.37 29.18 43.82 29.18 51.66 28.05 53.18 16.16 48.63 16.16 54.32 28.43 59.38 34.62 53.43 34.62 40.66 27.52 35.79 21.85 39.77 21.85 31.93 33.1 31.93 33.1 26.87"/></g></g></svg>