<svg xmlns="http://www.w3.org/2000/svg" xmlns:xlink="http://www.w3.org/1999/xlink" viewBox="0 0 75.69 84.19"><defs><style>.cls-1{fill:url(#Безымянный_градиент_51);}.cls-2{fill:#fff;}</style><linearGradient id="Безымянный_градиент_51" x1="583.68" y1="327.24" x2="658.87" y2="327.24" gradientTransform="translate(365.09 -579.18) rotate(90)" gradientUnits="userSpaceOnUse"><stop offset="0" stop-color="#e0d465"/><stop offset="1" stop-color="#afa137"/></linearGradient></defs><title>userlevel_31</title><g id="Слой_2" data-name="Слой 2"><g id="Слой_1-2" data-name="Слой 1"><path class="cls-1" d="M37.85,79.69a5.93,5.93,0,0,1-2.94-.78L7.44,63.05A5.89,5.89,0,0,1,4.5,58V26.23a5.88,5.88,0,0,1,2.93-5.08L34.91,5.29a5.85,5.85,0,0,1,5.87,0L68.26,21.15a5.88,5.88,0,0,1,2.93,5.08V58A5.87,5.87,0,0,1,68.26,63L40.78,78.91A5.89,5.89,0,0,1,37.85,79.69Z"/><path class="cls-2" d="M37.85,9a1.38,1.38,0,0,1,.68.18L66,25.05a1.36,1.36,0,0,1,.68,1.18V58A1.39,1.39,0,0,1,66,59.15L38.53,75a1.39,1.39,0,0,1-1.37,0L9.69,59.15A1.37,1.37,0,0,1,9,58V26.23a1.35,1.35,0,0,1,.69-1.18L37.16,9.18A1.39,1.39,0,0,1,37.85,9m0-9a10.4,10.4,0,0,0-5.19,1.39L5.19,17.25a10.41,10.41,0,0,0-5.19,9V58a10.41,10.41,0,0,0,5.19,9L32.66,82.8a10.4,10.4,0,0,0,10.37,0L70.51,66.94a10.4,10.4,0,0,0,5.18-9V26.23a10.4,10.4,0,0,0-5.18-9L43,1.39A10.36,10.36,0,0,0,37.85,0Z"/><polygon class="cls-2" points="19.64 30.71 19.64 25.87 38.49 25.87 38.49 33.86 30.24 38.31 38.49 41.06 38.49 52.58 29.72 59.52 19.64 55.2 19.64 49.31 29.07 53.24 32.73 50.36 32.73 44.73 23.83 41.19 23.83 35.3 33.39 30.98 19.64 30.71"/><polygon class="cls-2" points="42.1 32.89 42.1 26.63 45.88 24.67 52.14 28.78 52.14 53.1 56.06 53.1 56.06 58.19 42.1 58.19 42.1 53.1 46.41 53.1 46.41 30.54 42.1 32.89"/></g></g></svg>