<svg xmlns="http://www.w3.org/2000/svg" viewBox="0 0 75.69 84.23"><defs><style>.cls-1{fill:#7dbcbc;}.cls-2{fill:#fff;}</style></defs><title>userlevel_15</title><g id="Слой_2" data-name="Слой 2"><g id="Слой_1-2" data-name="Слой 1"><path class="cls-1" d="M37.85,79.73A5.8,5.8,0,0,1,35,79L7.38,63a5.75,5.75,0,0,1-2.88-5V26.18a5.75,5.75,0,0,1,2.88-5L35,5.27a5.75,5.75,0,0,1,5.75,0L68.32,21.2a5.76,5.76,0,0,1,2.87,5V58.05a5.75,5.75,0,0,1-2.88,5L40.72,79A5.79,5.79,0,0,1,37.85,79.73Z"/><path class="cls-2" d="M37.85,9a1.26,1.26,0,0,1,.62.17L66.07,25.1a1.26,1.26,0,0,1,.62,1.08V58.05a1.26,1.26,0,0,1-.62,1.08L38.47,75.06a1.23,1.23,0,0,1-1.25,0L9.63,59.13A1.25,1.25,0,0,1,9,58.05V26.18a1.25,1.25,0,0,1,.63-1.08L37.22,9.17A1.27,1.27,0,0,1,37.85,9m0-9a10.37,10.37,0,0,0-5.13,1.37L5.13,17.3A10.28,10.28,0,0,0,0,26.18V58.05a10.28,10.28,0,0,0,5.13,8.88L32.72,82.86a10.27,10.27,0,0,0,10.25,0l27.6-15.93a10.29,10.29,0,0,0,5.12-8.88V26.18a10.29,10.29,0,0,0-5.12-8.88L43,1.37A10.33,10.33,0,0,0,37.85,0Z"/><polygon class="cls-2" points="20.28 33.07 20.28 26.81 24.07 24.85 30.33 28.96 30.33 53.29 34.24 53.29 34.24 58.38 20.28 58.38 20.28 53.29 24.59 53.29 24.59 30.72 20.28 33.07"/><polygon class="cls-2" points="53.89 26.88 36.95 26.88 36.95 44.08 42.26 45.85 48.08 42.37 49.97 43.82 49.97 51.66 48.83 53.18 36.95 48.63 36.95 54.32 49.21 59.38 55.41 53.43 55.41 40.66 48.31 35.79 42.64 39.77 42.64 31.93 53.89 31.93 53.89 26.88"/></g></g></svg>