<svg xmlns="http://www.w3.org/2000/svg" xmlns:xlink="http://www.w3.org/1999/xlink" viewBox="0 0 75.69 84.19"><defs><style>.cls-1{fill:url(#Безымянный_градиент_51);}.cls-2{fill:#fff;}</style><linearGradient id="Безымянный_градиент_51" x1="485.22" y1="230.52" x2="560.41" y2="230.52" gradientTransform="translate(268.37 -480.72) rotate(90)" gradientUnits="userSpaceOnUse"><stop offset="0" stop-color="#e0d465"/><stop offset="1" stop-color="#afa137"/></linearGradient></defs><title>userlevel_32</title><g id="Слой_2" data-name="Слой 2"><g id="Слой_1-2" data-name="Слой 1"><path class="cls-1" d="M37.85,79.69a5.93,5.93,0,0,1-2.94-.78L7.44,63A5.88,5.88,0,0,1,4.5,58V26.23a5.9,5.9,0,0,1,2.93-5.08L34.91,5.29a5.88,5.88,0,0,1,5.87,0L68.26,21.15a5.9,5.9,0,0,1,2.93,5.08V58a5.89,5.89,0,0,1-2.94,5.09L40.78,78.91A5.89,5.89,0,0,1,37.85,79.69Z"/><path class="cls-2" d="M37.85,9a1.38,1.38,0,0,1,.68.18L66,25.05a1.36,1.36,0,0,1,.68,1.18V58A1.39,1.39,0,0,1,66,59.15L38.53,75a1.39,1.39,0,0,1-1.37,0L9.69,59.15A1.37,1.37,0,0,1,9,58V26.23a1.35,1.35,0,0,1,.69-1.18L37.16,9.18A1.39,1.39,0,0,1,37.85,9m0-9a10.4,10.4,0,0,0-5.19,1.39L5.19,17.25a10.41,10.41,0,0,0-5.19,9V58a10.41,10.41,0,0,0,5.19,9L32.66,82.8a10.4,10.4,0,0,0,10.37,0L70.51,66.94a10.4,10.4,0,0,0,5.18-9V26.23a10.4,10.4,0,0,0-5.18-9L43,1.39A10.36,10.36,0,0,0,37.85,0Z"/><polygon class="cls-2" points="17.06 31.12 17.06 26.27 35.92 26.27 35.92 34.26 27.67 38.71 35.92 41.46 35.92 52.99 27.15 59.93 17.06 55.61 17.06 49.72 26.49 53.64 30.16 50.76 30.16 45.13 21.25 41.59 21.25 35.7 30.81 31.38 17.06 31.12"/><polygon class="cls-2" points="39.73 36.16 39.73 30.34 49.77 24.26 58.63 30.21 58.63 40.52 45.02 51.1 46.2 53.08 58.63 53.08 58.63 57.97 42.64 57.97 38.27 50.04 53.08 38.41 53.08 33.38 49.11 30.61 39.73 36.16"/></g></g></svg>