<svg xmlns="http://www.w3.org/2000/svg" xmlns:xlink="http://www.w3.org/1999/xlink" viewBox="0 0 75.69 83.81"><defs><style>.cls-1{fill:url(#Безымянный_градиент_17);}.cls-2{fill:#fff;}</style><linearGradient id="Безымянный_градиент_17" x1="-86.31" y1="69.32" x2="-11.5" y2="69.32" gradientTransform="translate(107.17 90.81) rotate(90)" gradientUnits="userSpaceOnUse"><stop offset="0" stop-color="#5f6872"/><stop offset="0.3" stop-color="#697585"/><stop offset="0.89" stop-color="#8298b7"/><stop offset="1" stop-color="#879fc1"/></linearGradient></defs><title>userlevel_10</title><g id="Слой_2" data-name="Слой 2"><g id="Слой_1-2" data-name="Слой 1"><path class="cls-1" d="M37.85,79.31a6.92,6.92,0,0,1-3.45-.89L8,63.15a7.09,7.09,0,0,1-3.45-6V26.63a7.09,7.09,0,0,1,3.45-6L34.4,5.39a7.11,7.11,0,0,1,6.89,0L67.75,20.66a7.1,7.1,0,0,1,3.44,6V57.18a7.1,7.1,0,0,1-3.44,6L41.29,78.42A6.88,6.88,0,0,1,37.85,79.31Z"/><path class="cls-2" d="M37.85,9A2.43,2.43,0,0,1,39,9.28L65.5,24.56a2.64,2.64,0,0,1,1.19,2.07V57.18a2.64,2.64,0,0,1-1.19,2.07L39,74.52a2.61,2.61,0,0,1-2.39,0L10.2,59.25A2.65,2.65,0,0,1,9,57.18V26.63a2.65,2.65,0,0,1,1.2-2.07L36.65,9.28A2.45,2.45,0,0,1,37.85,9m0-9a11.46,11.46,0,0,0-5.7,1.49L5.7,16.76A11.58,11.58,0,0,0,0,26.63V57.18A11.57,11.57,0,0,0,5.7,67L32.15,82.32a11.63,11.63,0,0,0,11.39,0L70,67a11.56,11.56,0,0,0,5.69-9.86V26.63A11.55,11.55,0,0,0,70,16.77L43.54,1.49A11.45,11.45,0,0,0,37.85,0Z"/><path class="cls-2" d="M52.47,25.67h-11l-6.29,7.08v19.4l6,7.21H52l6.29-7.21V32.75Zm-.13,24.65L49.2,54H44.48l-3.54-3.8V35.05l3.8-4.39H48.8l3.54,4.39Z"/><polygon class="cls-2" points="19.45 33.89 19.45 27.63 23.24 25.67 29.5 29.78 29.5 54.11 33.41 54.11 33.41 59.2 19.45 59.2 19.45 54.11 23.76 54.11 23.76 31.54 19.45 33.89"/></g></g></svg>