<svg xmlns="http://www.w3.org/2000/svg" xmlns:xlink="http://www.w3.org/1999/xlink" viewBox="0 0 75.69 84.23"><defs><style>.cls-1{fill:url(#Безымянный_градиент_26);}.cls-2{fill:#fff;}</style><linearGradient id="Безымянный_градиент_26" x1="-86.52" y1="69.53" x2="-11.29" y2="69.53" gradientTransform="translate(107.38 91.02) rotate(90)" gradientUnits="userSpaceOnUse"><stop offset="0" stop-color="#649392"/><stop offset="1" stop-color="#6ce5e1"/></linearGradient></defs><title>userlevel_17</title><g id="Слой_2" data-name="Слой 2"><g id="Слой_1-2" data-name="Слой 1"><path class="cls-1" d="M37.85,79.73A5.8,5.8,0,0,1,35,79L7.38,63a5.77,5.77,0,0,1-2.88-5V26.18a5.75,5.75,0,0,1,2.88-5L35,5.27a5.77,5.77,0,0,1,5.76,0L68.32,21.2a5.76,5.76,0,0,1,2.87,5V58.05a5.79,5.79,0,0,1-2.87,5L40.72,79A5.79,5.79,0,0,1,37.85,79.73Z"/><path class="cls-2" d="M37.85,9a1.26,1.26,0,0,1,.62.17L66.07,25.1a1.26,1.26,0,0,1,.62,1.08V58.05a1.26,1.26,0,0,1-.62,1.08L38.47,75.06a1.23,1.23,0,0,1-1.25,0L9.63,59.13A1.25,1.25,0,0,1,9,58.05V26.18a1.25,1.25,0,0,1,.63-1.08L37.22,9.17A1.27,1.27,0,0,1,37.85,9m0-9a10.37,10.37,0,0,0-5.13,1.37L5.13,17.3A10.28,10.28,0,0,0,0,26.18V58.05a10.28,10.28,0,0,0,5.13,8.88L32.72,82.86a10.27,10.27,0,0,0,10.25,0l27.6-15.93a10.29,10.29,0,0,0,5.12-8.88V26.18a10.29,10.29,0,0,0-5.12-8.88L43,1.37A10.33,10.33,0,0,0,37.85,0Z"/><polygon class="cls-2" points="21.56 33.57 21.56 27.31 25.34 25.35 31.61 29.46 31.61 53.79 35.52 53.79 35.52 58.88 21.56 58.88 21.56 53.79 25.87 53.79 25.87 31.22 21.56 33.57"/><polygon class="cls-2" points="35.78 26.44 54.13 26.44 54.13 39.53 46.56 47.61 46.56 58.53 41.17 58.53 41.17 45.18 48.87 37.22 48.87 31.45 35.78 31.57 35.78 26.44"/></g></g></svg>