<svg xmlns="http://www.w3.org/2000/svg" xmlns:xlink="http://www.w3.org/1999/xlink" viewBox="0 0 75.69 84.38"><defs><style>.cls-1{fill:url(#Безымянный_градиент_73);}.cls-2{fill:#fff;}</style><linearGradient id="Безымянный_градиент_73" x1="4.5" y1="42.19" x2="71.19" y2="42.19" gradientUnits="userSpaceOnUse"><stop offset="0" stop-color="#961775"/><stop offset="1" stop-color="#f21c69"/></linearGradient></defs><title>userlevel_46</title><g id="Слой_2" data-name="Слой 2"><g id="Слой_1-2" data-name="Слой 1"><path class="cls-1" d="M37.85,79.88a5.29,5.29,0,0,1-2.64-.7L7.14,63A5.3,5.3,0,0,1,4.5,58.39V26a5.29,5.29,0,0,1,2.64-4.57L35.21,5.21a5.24,5.24,0,0,1,5.27,0l28.07,16.2A5.29,5.29,0,0,1,71.19,26V58.39A5.29,5.29,0,0,1,68.55,63L40.48,79.17A5.29,5.29,0,0,1,37.85,79.88Z"/><path class="cls-2" d="M37.85,9a.78.78,0,0,1,.39.1L66.3,25.31a.76.76,0,0,1,.39.67V58.39a.77.77,0,0,1-.39.68L38.24,75.27a.79.79,0,0,1-.39.11.77.77,0,0,1-.39-.11L9.39,59.07A.79.79,0,0,1,9,58.39V26a.79.79,0,0,1,.39-.67L37.46,9.1a.76.76,0,0,1,.39-.1m0-9A9.74,9.74,0,0,0,33,1.31L4.89,17.52A9.79,9.79,0,0,0,0,26V58.39a9.79,9.79,0,0,0,4.89,8.47L33,83.07a9.76,9.76,0,0,0,9.77,0L70.8,66.86a9.79,9.79,0,0,0,4.89-8.47V26a9.79,9.79,0,0,0-4.89-8.46L42.74,1.31A9.79,9.79,0,0,0,37.85,0Z"/><path class="cls-2" d="M51.68,35.68l-6.13,4.09v-5L48,32.1,56.66,34l-.13-5.36L47.08,26.1l-7.15,7.15V54.84l12.39,4.72,6.26-5.87v-13Zm1.4,16.09-1.53,1.41-6-2.3V45.64l5.36-3.21,2.17,1.42Z"/><polygon class="cls-2" points="22.68 43.21 22.68 46.12 29.95 46.12 29.95 37.25 35.51 37.25 35.51 46.12 38.03 46.12 38.03 51.28 35.51 51.28 35.51 57.9 29.82 57.9 29.82 51.15 17.12 51.15 17.12 41.02 29.29 24.81 36.7 24.81 22.68 43.21"/></g></g></svg>