<svg xmlns="http://www.w3.org/2000/svg" xmlns:xlink="http://www.w3.org/1999/xlink" viewBox="0 0 75.69 84.23"><defs><style>.cls-1{fill:url(#Безымянный_градиент_26);}.cls-2{fill:#fff;}</style><linearGradient id="Безымянный_градиент_26" x1="-86.52" y1="69.53" x2="-11.29" y2="69.53" gradientTransform="translate(107.38 91.02) rotate(90)" gradientUnits="userSpaceOnUse"><stop offset="0" stop-color="#649392"/><stop offset="1" stop-color="#6ce5e1"/></linearGradient></defs><title>userlevel_20</title><g id="Слой_2" data-name="Слой 2"><g id="Слой_1-2" data-name="Слой 1"><path class="cls-1" d="M37.85,79.73A5.8,5.8,0,0,1,35,79L7.38,63a5.75,5.75,0,0,1-2.88-5V26.18a5.76,5.76,0,0,1,2.88-5L35,5.27a5.75,5.75,0,0,1,5.75,0L68.32,21.2a5.77,5.77,0,0,1,2.87,5V58.05a5.75,5.75,0,0,1-2.88,5L40.72,79A5.79,5.79,0,0,1,37.85,79.73Z"/><path class="cls-2" d="M37.85,9a1.26,1.26,0,0,1,.62.17L66.07,25.1a1.26,1.26,0,0,1,.62,1.08V58.05a1.26,1.26,0,0,1-.62,1.08L38.47,75.06a1.23,1.23,0,0,1-1.25,0L9.63,59.13A1.25,1.25,0,0,1,9,58.05V26.18a1.25,1.25,0,0,1,.63-1.08L37.22,9.17A1.27,1.27,0,0,1,37.85,9m0-9a10.26,10.26,0,0,0-5.13,1.37L5.13,17.3A10.28,10.28,0,0,0,0,26.18V58.05a10.28,10.28,0,0,0,5.13,8.88L32.72,82.86a10.27,10.27,0,0,0,10.25,0l27.6-15.93a10.29,10.29,0,0,0,5.12-8.88V26.18a10.29,10.29,0,0,0-5.12-8.88L43,1.37A10.23,10.23,0,0,0,37.85,0Z"/><path class="cls-2" d="M54.89,26.75H44.28l-6.06,6.82V52.26l5.81,7H54.39l6.06-7V33.57Zm-.12,23.74-3,3.54H47.19l-3.41-3.67V35.78l3.66-4.23h3.92l3.41,4.23Z"/><polygon class="cls-2" points="16.72 37.09 16.72 31.19 26.91 25.02 35.89 31.06 35.89 41.51 22.08 52.24 23.29 54.25 35.89 54.25 35.89 59.21 19.67 59.21 15.24 51.16 30.26 39.37 30.26 34.27 26.24 31.46 16.72 37.09"/></g></g></svg>