<svg xmlns="http://www.w3.org/2000/svg" xmlns:xlink="http://www.w3.org/1999/xlink" viewBox="0 0 75.69 83.81"><defs><style>.cls-1{fill:url(#Безымянный_градиент_56);}.cls-2{fill:#fff;}</style><linearGradient id="Безымянный_градиент_56" x1="4.5" y1="41.9" x2="71.19" y2="41.9" gradientUnits="userSpaceOnUse"><stop offset="0" stop-color="#d6ad47"/><stop offset="1" stop-color="#bf7e30"/></linearGradient></defs><title>userlevel_38</title><g id="Слой_2" data-name="Слой 2"><g id="Слой_1-2" data-name="Слой 1"><path class="cls-1" d="M37.85,79.31a6.92,6.92,0,0,1-3.45-.89L7.94,63.15a7.11,7.11,0,0,1-3.44-6V26.63a7.1,7.1,0,0,1,3.44-6L34.4,5.39a7.11,7.11,0,0,1,6.89,0L67.75,20.66a7.1,7.1,0,0,1,3.44,6V57.18a7.11,7.11,0,0,1-3.44,6L41.29,78.42A6.86,6.86,0,0,1,37.85,79.31Z"/><path class="cls-2" d="M37.85,9A2.43,2.43,0,0,1,39,9.28L65.5,24.56a2.64,2.64,0,0,1,1.19,2.07V57.18a2.64,2.64,0,0,1-1.19,2.07L39,74.52a2.61,2.61,0,0,1-2.39,0L10.2,59.25A2.65,2.65,0,0,1,9,57.18V26.63a2.65,2.65,0,0,1,1.2-2.07L36.65,9.28A2.45,2.45,0,0,1,37.85,9m0-9a11.46,11.46,0,0,0-5.7,1.49L5.7,16.77A11.56,11.56,0,0,0,0,26.63V57.18A11.57,11.57,0,0,0,5.7,67L32.15,82.32a11.63,11.63,0,0,0,11.39,0L70,67a11.56,11.56,0,0,0,5.69-9.86V26.63A11.58,11.58,0,0,0,70,16.76L43.54,1.49A11.45,11.45,0,0,0,37.85,0Z"/><polygon class="cls-2" points="15.92 30.74 15.92 25.89 34.77 25.89 34.77 33.88 26.52 38.34 34.77 41.09 34.77 52.61 26 59.55 15.92 55.23 15.92 49.34 25.34 53.27 29.01 50.38 29.01 44.75 20.11 41.22 20.11 35.32 29.67 31 15.92 30.74"/><path class="cls-2" d="M55.93,40.16l3.19-1.06V28.5L48.91,24.26,38.71,28.5v9.93l4.37,2.13-5.17,2.25V54.2l11,4.78,10.87-4.64V42ZM44.41,31.68l4.43-1.59,4.58,2.12v3.44l-4.58,1.72-4.43-2.51ZM54.08,51l-4.51,1.86-5.83-2.65V45.86l5.83-2.26,4.51,2.26Z"/></g></g></svg>