<svg xmlns="http://www.w3.org/2000/svg" xmlns:xlink="http://www.w3.org/1999/xlink" viewBox="0 0 75.69 84.19"><defs><style>.cls-1{fill:url(#Безымянный_градиент_59);}.cls-2{fill:#fff;}</style><linearGradient id="Безымянный_градиент_59" x1="407.37" y1="-47" x2="482.56" y2="-47" gradientTransform="translate(-9.15 -402.87) rotate(90)" gradientUnits="userSpaceOnUse"><stop offset="0" stop-color="#e28940"/><stop offset="1" stop-color="#e26b50"/></linearGradient></defs><title>userlevel_44</title><g id="Слой_2" data-name="Слой 2"><g id="Слой_1-2" data-name="Слой 1"><path class="cls-1" d="M37.85,79.69a5.84,5.84,0,0,1-2.94-.79L7.44,63.05A5.91,5.91,0,0,1,4.5,58V26.24a5.91,5.91,0,0,1,2.94-5.1L34.9,5.29a5.88,5.88,0,0,1,5.89,0L68.25,21.14a5.89,5.89,0,0,1,2.94,5.1V58a5.89,5.89,0,0,1-2.94,5.1L40.79,78.9A5.86,5.86,0,0,1,37.85,79.69Z"/><path class="cls-2" d="M37.85,9a1.33,1.33,0,0,1,.69.19L66,25a1.39,1.39,0,0,1,.69,1.2V58a1.38,1.38,0,0,1-.69,1.2L38.54,75a1.33,1.33,0,0,1-.69.19,1.37,1.37,0,0,1-.7-.19L9.69,59.15A1.38,1.38,0,0,1,9,58V26.24A1.39,1.39,0,0,1,9.69,25L37.15,9.19a1.37,1.37,0,0,1,.7-.19m0-9a10.44,10.44,0,0,0-5.2,1.39L5.19,17.25a10.41,10.41,0,0,0-5.19,9V58a10.41,10.41,0,0,0,5.19,9L32.65,82.8A10.4,10.4,0,0,0,43,82.8L70.5,66.94a10.41,10.41,0,0,0,5.19-9V26.24a10.41,10.41,0,0,0-5.19-9L43,1.39A10.4,10.4,0,0,0,37.85,0Z"/><polygon class="cls-2" points="44.87 43.48 44.87 46.4 52.15 46.4 52.15 37.53 57.7 37.53 57.7 46.4 60.22 46.4 60.22 51.56 57.7 51.56 57.7 58.17 52.01 58.17 52.01 51.42 39.31 51.42 39.31 41.3 51.48 25.09 58.89 25.09 44.87 43.48"/><polygon class="cls-2" points="21.03 44.41 21.03 47.32 28.31 47.32 28.31 38.46 33.87 38.46 33.87 47.32 36.38 47.32 36.38 52.48 33.87 52.48 33.87 59.1 28.18 59.1 28.18 52.35 15.47 52.35 15.47 42.23 27.65 26.02 35.06 26.02 21.03 44.41"/></g></g></svg>