<svg xmlns="http://www.w3.org/2000/svg" xmlns:xlink="http://www.w3.org/1999/xlink" viewBox="0 0 75.69 84.23"><defs><style>.cls-1{fill:url(#Безымянный_градиент_47);}.cls-2{fill:#fff;}</style><linearGradient id="Безымянный_градиент_47" x1="19.83" y1="-37.11" x2="95.06" y2="-37.11" gradientTransform="translate(0.74 -15.33) rotate(90)" gradientUnits="userSpaceOnUse"><stop offset="0" stop-color="#c3e264"/><stop offset="1" stop-color="#87b236"/></linearGradient></defs><title>userlevel_30</title><g id="Слой_2" data-name="Слой 2"><g id="Слой_1-2" data-name="Слой 1"><path class="cls-1" d="M37.85,79.73A5.8,5.8,0,0,1,35,79L7.38,63a5.77,5.77,0,0,1-2.88-5V26.18a5.75,5.75,0,0,1,2.88-5L35,5.27a5.75,5.75,0,0,1,5.75,0L68.32,21.2a5.76,5.76,0,0,1,2.87,5V58.05a5.79,5.79,0,0,1-2.87,5L40.72,79A5.79,5.79,0,0,1,37.85,79.73Z"/><path class="cls-2" d="M37.85,9a1.26,1.26,0,0,1,.62.17L66.07,25.1a1.26,1.26,0,0,1,.62,1.08V58.05a1.26,1.26,0,0,1-.62,1.08L38.47,75.06a1.23,1.23,0,0,1-1.25,0L9.63,59.13A1.25,1.25,0,0,1,9,58.05V26.18a1.25,1.25,0,0,1,.63-1.08L37.22,9.17A1.27,1.27,0,0,1,37.85,9m0-9a10.37,10.37,0,0,0-5.13,1.37L5.13,17.3A10.28,10.28,0,0,0,0,26.18V58.05a10.28,10.28,0,0,0,5.13,8.88L32.72,82.86a10.27,10.27,0,0,0,10.25,0l27.6-15.93a10.29,10.29,0,0,0,5.12-8.88V26.18a10.29,10.29,0,0,0-5.12-8.88L43,1.37A10.33,10.33,0,0,0,37.85,0Z"/><polygon class="cls-2" points="15.73 30.83 15.73 25.99 34.59 25.99 34.59 33.98 26.34 38.43 34.59 41.18 34.59 52.7 25.82 59.64 15.73 55.32 15.73 49.43 25.16 53.36 28.83 50.48 28.83 44.85 19.93 41.31 19.93 35.42 29.49 31.09 15.73 30.83"/><path class="cls-2" d="M54.4,24.59H43.79l-6.06,6.82V50.1L43.54,57H53.9L60,50.1V31.41Zm-.12,23.74-3,3.54H46.7L43.29,48.2V33.62L47,29.39h3.91l3.42,4.23Z"/></g></g></svg>