<svg xmlns="http://www.w3.org/2000/svg" xmlns:xlink="http://www.w3.org/1999/xlink" viewBox="0 0 75.69 84.23"><defs><style>.cls-1{fill:url(#Безымянный_градиент_56);}.cls-2{fill:#fff;}</style><linearGradient id="Безымянный_градиент_56" x1="4.5" y1="42.12" x2="71.19" y2="42.12" gradientUnits="userSpaceOnUse"><stop offset="0" stop-color="#d6ad47"/><stop offset="1" stop-color="#bf7e30"/></linearGradient></defs><title>userlevel_36</title><g id="Слой_2" data-name="Слой 2"><g id="Слой_1-2" data-name="Слой 1"><path class="cls-1" d="M37.85,79.73A5.8,5.8,0,0,1,35,79L7.38,63a5.77,5.77,0,0,1-2.88-5V26.18a5.75,5.75,0,0,1,2.88-5L35,5.27a5.77,5.77,0,0,1,5.76,0L68.32,21.2a5.76,5.76,0,0,1,2.87,5V58.05a5.79,5.79,0,0,1-2.87,5L40.72,79A5.79,5.79,0,0,1,37.85,79.73Z"/><path class="cls-2" d="M37.85,9a1.26,1.26,0,0,1,.62.17L66.07,25.1a1.26,1.26,0,0,1,.62,1.08V58.05a1.26,1.26,0,0,1-.62,1.08L38.47,75.06a1.23,1.23,0,0,1-1.25,0L9.63,59.13A1.25,1.25,0,0,1,9,58.05V26.18a1.25,1.25,0,0,1,.63-1.08L37.22,9.17A1.27,1.27,0,0,1,37.85,9m0-9a10.26,10.26,0,0,0-5.13,1.37L5.13,17.3A10.28,10.28,0,0,0,0,26.18V58.05a10.28,10.28,0,0,0,5.13,8.88L32.72,82.86a10.27,10.27,0,0,0,10.25,0l27.6-15.93a10.29,10.29,0,0,0,5.12-8.88V26.18a10.29,10.29,0,0,0-5.12-8.88L43,1.37A10.23,10.23,0,0,0,37.85,0Z"/><polygon class="cls-2" points="17.88 30.46 17.88 25.62 36.74 25.62 36.74 33.61 28.49 38.06 36.74 40.81 36.74 52.34 27.96 59.28 17.88 54.95 17.88 49.06 27.31 52.99 30.98 50.11 30.98 44.48 22.07 40.94 22.07 35.05 31.63 30.73 17.88 30.46"/><path class="cls-2" d="M50.92,34.53l-6.13,4.09v-5L47.21,31l8.69,1.91-.13-5.36L46.32,25l-7.15,7.16V53.69l12.38,4.73,6.26-5.88v-13Zm1.4,16.1L50.79,52l-6-2.3V44.5l5.36-3.22,2.17,1.43Z"/></g></g></svg>