<svg xmlns="http://www.w3.org/2000/svg" xmlns:xlink="http://www.w3.org/1999/xlink" viewBox="0 0 75.69 84.23"><defs><style>.cls-1{fill:url(#Безымянный_градиент_56);}.cls-2{fill:#fff;}</style><linearGradient id="Безымянный_градиент_56" x1="4.5" y1="42.12" x2="71.19" y2="42.12" gradientUnits="userSpaceOnUse"><stop offset="0" stop-color="#d6ad47"/><stop offset="1" stop-color="#bf7e30"/></linearGradient></defs><title>userlevel_40</title><g id="Слой_2" data-name="Слой 2"><g id="Слой_1-2" data-name="Слой 1"><path class="cls-1" d="M37.85,79.73A5.87,5.87,0,0,1,35,79L7.38,63a5.75,5.75,0,0,1-2.88-5V26.18a5.76,5.76,0,0,1,2.88-5L35,5.27a5.75,5.75,0,0,1,5.75,0L68.32,21.2a5.77,5.77,0,0,1,2.87,5V58.05a5.75,5.75,0,0,1-2.88,5L40.72,79A5.77,5.77,0,0,1,37.85,79.73Z"/><path class="cls-2" d="M37.85,9a1.26,1.26,0,0,1,.62.17L66.07,25.1a1.26,1.26,0,0,1,.62,1.08V58.05a1.26,1.26,0,0,1-.62,1.08L38.47,75.06a1.23,1.23,0,0,1-1.25,0L9.63,59.13A1.25,1.25,0,0,1,9,58.05V26.18a1.25,1.25,0,0,1,.63-1.08L37.22,9.17A1.27,1.27,0,0,1,37.85,9m0-9a10.26,10.26,0,0,0-5.13,1.37L5.13,17.3A10.28,10.28,0,0,0,0,26.18V58.05a10.28,10.28,0,0,0,5.13,8.88L32.72,82.86a10.27,10.27,0,0,0,10.25,0l27.6-15.93a10.29,10.29,0,0,0,5.12-8.88V26.18a10.29,10.29,0,0,0-5.12-8.88L43,1.37A10.23,10.23,0,0,0,37.85,0Z"/><polygon class="cls-2" points="20.39 43.96 20.39 46.87 27.66 46.87 27.66 38 33.22 38 33.22 46.87 35.73 46.87 35.73 52.03 33.22 52.03 33.22 58.65 27.53 58.65 27.53 51.9 14.83 51.9 14.83 41.77 27 25.57 34.41 25.57 20.39 43.96"/><path class="cls-2" d="M55.31,26.21H44.7L38.64,33V51.72l5.81,7H54.8l6.07-7V33ZM55.18,50l-3,3.54H47.6l-3.41-3.67V35.24L47.86,31h3.91l3.41,4.23Z"/></g></g></svg>