<svg xmlns="http://www.w3.org/2000/svg" xmlns:xlink="http://www.w3.org/1999/xlink" viewBox="0 0 75.69 84.23"><defs><style>.cls-1{fill:url(#Безымянный_градиент_32);}.cls-2{fill:#fff;}</style><linearGradient id="Безымянный_градиент_32" x1="112.14" y1="59" x2="187.37" y2="59" gradientTransform="translate(96.85 -107.64) rotate(90)" gradientUnits="userSpaceOnUse"><stop offset="0" stop-color="#7dba80"/><stop offset="1" stop-color="#428956"/></linearGradient></defs><title>userlevel_25</title><g id="Слой_2" data-name="Слой 2"><g id="Слой_1-2" data-name="Слой 1"><path class="cls-1" d="M37.85,79.73A5.8,5.8,0,0,1,35,79L7.38,63a5.75,5.75,0,0,1-2.88-5V26.18a5.76,5.76,0,0,1,2.88-5L35,5.27a5.75,5.75,0,0,1,5.75,0L68.32,21.2a5.77,5.77,0,0,1,2.87,5V58.05a5.76,5.76,0,0,1-2.87,5L40.72,79A5.79,5.79,0,0,1,37.85,79.73Z"/><path class="cls-2" d="M37.85,9a1.26,1.26,0,0,1,.62.17L66.07,25.1a1.26,1.26,0,0,1,.62,1.08V58.05a1.26,1.26,0,0,1-.62,1.08L38.47,75.06a1.23,1.23,0,0,1-1.25,0L9.63,59.13A1.25,1.25,0,0,1,9,58.05V26.18a1.25,1.25,0,0,1,.63-1.08L37.22,9.17A1.27,1.27,0,0,1,37.85,9m0-9a10.37,10.37,0,0,0-5.13,1.37L5.13,17.3A10.28,10.28,0,0,0,0,26.18V58.05a10.28,10.28,0,0,0,5.13,8.88L32.72,82.86a10.27,10.27,0,0,0,10.25,0l27.6-15.93a10.29,10.29,0,0,0,5.12-8.88V26.18a10.29,10.29,0,0,0-5.12-8.88L43,1.37A10.33,10.33,0,0,0,37.85,0Z"/><polygon class="cls-2" points="18.13 36.58 18.13 30.68 28.32 24.51 37.3 30.54 37.3 41 23.49 51.72 24.7 53.73 37.3 53.73 37.3 58.69 21.08 58.69 16.66 50.65 31.67 38.85 31.67 33.76 27.65 30.95 18.13 36.58"/><polygon class="cls-2" points="57.52 27.22 40.58 27.22 40.58 44.42 45.89 46.19 51.7 42.71 53.6 44.16 53.6 52 52.46 53.52 40.58 48.97 40.58 54.66 52.84 59.72 59.04 53.77 59.04 41 51.94 36.13 46.27 40.12 46.27 32.28 57.52 32.28 57.52 27.22"/></g></g></svg>