<svg xmlns="http://www.w3.org/2000/svg" xmlns:xlink="http://www.w3.org/1999/xlink" viewBox="0 0 75.69 83.81"><defs><style>.cls-1{fill:url(#Безымянный_градиент_73);}.cls-2{fill:#fff;}</style><linearGradient id="Безымянный_градиент_73" x1="4.5" y1="41.9" x2="71.19" y2="41.9" gradientUnits="userSpaceOnUse"><stop offset="0" stop-color="#961775"/><stop offset="1" stop-color="#f21c69"/></linearGradient></defs><title>userlevel_49</title><g id="Слой_2" data-name="Слой 2"><g id="Слой_1-2" data-name="Слой 1"><path class="cls-1" d="M37.85,79.31a6.92,6.92,0,0,1-3.45-.89L7.94,63.15a7.11,7.11,0,0,1-3.44-6V26.63a7.1,7.1,0,0,1,3.44-6L34.4,5.39a7.11,7.11,0,0,1,6.89,0L67.75,20.66a7.1,7.1,0,0,1,3.44,6V57.18a7.11,7.11,0,0,1-3.44,6L41.29,78.42A6.91,6.91,0,0,1,37.85,79.31Z"/><path class="cls-2" d="M37.85,9A2.43,2.43,0,0,1,39,9.28L65.5,24.56a2.64,2.64,0,0,1,1.19,2.07V57.18a2.64,2.64,0,0,1-1.19,2.07L39,74.52a2.61,2.61,0,0,1-2.39,0L10.2,59.25A2.65,2.65,0,0,1,9,57.18V26.63a2.65,2.65,0,0,1,1.2-2.07L36.65,9.28A2.45,2.45,0,0,1,37.85,9m0-9a11.46,11.46,0,0,0-5.7,1.49L5.7,16.77A11.56,11.56,0,0,0,0,26.63V57.18A11.57,11.57,0,0,0,5.7,67L32.15,82.32a11.63,11.63,0,0,0,11.39,0L70,67a11.56,11.56,0,0,0,5.69-9.86V26.63A11.58,11.58,0,0,0,70,16.76L43.54,1.49A11.45,11.45,0,0,0,37.85,0Z"/><path class="cls-2" d="M46.28,24.44,40,30.31V43.9l7.2,5.34,6.27-4.14-.14,5.2-2.66,2.93-8.8-2.53v6l9.73,2.67L59.07,52V29.24Zm7.2,14.26-5.74,3.87-2-1.09V32l1.6-1.73,6.14,2.8Z"/><polygon class="cls-2" points="22.18 44 22.18 46.91 29.45 46.91 29.45 38.05 35.01 38.05 35.01 46.91 37.53 46.91 37.53 52.07 35.01 52.07 35.01 58.69 29.32 58.69 29.32 51.94 16.62 51.94 16.62 41.82 28.79 25.61 36.2 25.61 22.18 44"/></g></g></svg>