<svg xmlns="http://www.w3.org/2000/svg" xmlns:xlink="http://www.w3.org/1999/xlink" viewBox="0 0 75.69 84.38"><defs><style>.cls-1{fill:url(#Безымянный_градиент_59);}.cls-2{fill:#fff;}</style><linearGradient id="Безымянный_градиент_59" x1="317.59" y1="-139.9" x2="392.97" y2="-139.9" gradientTransform="translate(-102.06 -313.09) rotate(90)" gradientUnits="userSpaceOnUse"><stop offset="0" stop-color="#e28940"/><stop offset="1" stop-color="#e26b50"/></linearGradient></defs><title>userlevel_45</title><g id="Слой_2" data-name="Слой 2"><g id="Слой_1-2" data-name="Слой 1"><path class="cls-1" d="M37.85,79.88a5.34,5.34,0,0,1-2.65-.71L7.14,63A5.29,5.29,0,0,1,4.5,58.39V26a5.3,5.3,0,0,1,2.63-4.56L35.21,5.21a5.2,5.2,0,0,1,2.64-.71,5.28,5.28,0,0,1,2.63.7L68.55,21.41A5.31,5.31,0,0,1,71.19,26V58.39A5.29,5.29,0,0,1,68.55,63L40.49,79.17A5.3,5.3,0,0,1,37.85,79.88Z"/><path class="cls-2" d="M37.85,9a.78.78,0,0,1,.39.1L66.3,25.31a.76.76,0,0,1,.39.67V58.39a.77.77,0,0,1-.39.68L38.24,75.27a.79.79,0,0,1-.39.11.77.77,0,0,1-.39-.11L9.39,59.07A.79.79,0,0,1,9,58.39V26a.79.79,0,0,1,.39-.67L37.46,9.1a.76.76,0,0,1,.39-.1m0-9A9.74,9.74,0,0,0,33,1.31L4.89,17.52A9.79,9.79,0,0,0,0,26V58.39a9.79,9.79,0,0,0,4.89,8.47L33,83.07a9.76,9.76,0,0,0,9.77,0L70.8,66.86a9.79,9.79,0,0,0,4.89-8.47V26a9.79,9.79,0,0,0-4.89-8.46L42.74,1.31A9.79,9.79,0,0,0,37.85,0Z"/><polygon class="cls-2" points="57.78 26.07 40.84 26.07 40.84 43.27 46.15 45.04 51.96 41.56 53.86 43.01 53.86 50.85 52.72 52.37 40.84 47.82 40.84 53.51 53.1 58.57 59.3 52.62 59.3 39.85 52.2 34.98 46.53 38.97 46.53 31.13 57.78 31.13 57.78 26.07"/><polygon class="cls-2" points="21.95 43.63 21.95 46.54 29.23 46.54 29.23 37.68 34.79 37.68 34.79 46.54 37.3 46.54 37.3 51.7 34.79 51.7 34.79 58.32 29.1 58.32 29.1 51.57 16.39 51.57 16.39 41.45 28.57 25.24 35.98 25.24 21.95 43.63"/></g></g></svg>