<svg xmlns="http://www.w3.org/2000/svg" viewBox="0 0 75.69 87.4"><defs><style>.cls-1{fill:#7dbcbc;}.cls-2{fill:#fff;}</style></defs><title>Ресурс 263</title><g id="Слой_2" data-name="Слой 2"><g id="Слой_1-2" data-name="Слой 1"><polygon class="cls-1" points="4.5 62.95 4.5 24.45 37.85 5.2 71.19 24.45 71.19 62.95 37.85 82.21 4.5 62.95"/><path class="cls-2" d="M37.85,10.39,66.69,27.05V60.36L37.85,77,9,60.36V27.05L37.85,10.39M37.85,0l-4.5,2.6L4.5,19.25,0,21.85v43.7l4.5,2.6L33.35,84.8l4.5,2.6,4.5-2.6L71.19,68.15l4.5-2.6V21.85l-4.5-2.6L42.35,2.6,37.85,0Z"/><polygon class="cls-2" points="22.25 35.12 22.25 28.86 26.04 26.9 32.3 31.01 32.3 55.34 36.21 55.34 36.21 60.42 22.25 60.42 22.25 55.34 26.56 55.34 26.56 32.77 22.25 35.12"/><polygon class="cls-2" points="39.48 35.2 39.48 28.94 43.27 26.98 49.53 31.09 49.53 55.42 53.44 55.42 53.44 60.5 39.48 60.5 39.48 55.42 43.79 55.42 43.79 32.85 39.48 35.2"/></g></g></svg>