<svg xmlns="http://www.w3.org/2000/svg" viewBox="0 0 75.69 87.4"><defs><style>.cls-1{fill:#949fb2;}.cls-2{fill:#fff;}</style></defs><title>Ресурс 270</title><g id="Слой_2" data-name="Слой 2"><g id="Слой_1-2" data-name="Слой 1"><polygon class="cls-1" points="4.5 62.95 4.5 24.45 37.85 5.2 71.19 24.45 71.19 62.95 37.85 82.21 4.5 62.95"/><path class="cls-2" d="M37.85,10.39,66.69,27.05V60.36L37.85,77,9,60.36V27.05L37.85,10.39M37.85,0l-4.5,2.6L4.5,19.25,0,21.85v43.7l4.5,2.6L33.35,84.8l4.5,2.6,4.5-2.6L71.19,68.15l4.5-2.6V21.85l-4.5-2.6L42.35,2.6,37.85,0Z"/><polygon class="cls-2" points="32.34 45.79 32.34 49.06 40.53 49.06 40.53 39.09 46.78 39.09 46.78 49.06 49.61 49.06 49.61 54.87 46.78 54.87 46.78 62.31 40.38 62.31 40.38 54.72 26.09 54.72 26.09 43.33 39.78 25.09 48.12 25.09 32.34 45.79"/></g></g></svg>