<svg xmlns="http://www.w3.org/2000/svg" xmlns:xlink="http://www.w3.org/1999/xlink" viewBox="0 0 75.69 87.4"><defs><style>.cls-1{fill:url(#Безымянный_градиент_59);}.cls-2{fill:#fff;}</style><linearGradient id="Безымянный_градиент_59" x1="586.82" y1="136.18" x2="663.83" y2="136.18" gradientTransform="translate(174.02 -581.62) rotate(90)" gradientUnits="userSpaceOnUse"><stop offset="0" stop-color="#e28940"/><stop offset="1" stop-color="#e26b50"/></linearGradient></defs><title>Ресурс 232</title><g id="Слой_2" data-name="Слой 2"><g id="Слой_1-2" data-name="Слой 1"><polygon class="cls-1" points="4.5 62.95 4.5 24.45 37.85 5.2 71.19 24.45 71.19 62.95 37.85 82.21 4.5 62.95"/><path class="cls-2" d="M37.85,10.39,66.69,27.05V60.36L37.85,77,9,60.36V27.05L37.85,10.39M37.85,0l-4.5,2.6L4.5,19.25,0,21.85v43.7l4.5,2.6L33.35,84.8l4.5,2.6,4.5-2.6L71.19,68.15l4.5-2.6V21.85l-4.5-2.6L42.35,2.6,37.85,0Z"/><polygon class="cls-2" points="40.29 38.61 40.29 32.8 50.34 26.72 59.19 32.66 59.19 42.97 45.58 53.55 46.77 55.53 59.19 55.53 59.19 60.42 43.2 60.42 38.84 52.49 53.64 40.86 53.64 35.84 49.67 33.06 40.29 38.61"/><polygon class="cls-2" points="22.06 46 22.06 48.91 29.34 48.91 29.34 40.05 34.9 40.05 34.9 48.91 37.41 48.91 37.41 54.07 34.9 54.07 34.9 60.69 29.2 60.69 29.2 53.94 16.5 53.94 16.5 43.82 28.68 27.61 36.09 27.61 22.06 46"/></g></g></svg>