<svg xmlns="http://www.w3.org/2000/svg" viewBox="0 0 75.69 87.4"><defs><style>.cls-1{fill:#949fb2;}.cls-2{fill:#fff;}</style></defs><title>Ресурс 269</title><g id="Слой_2" data-name="Слой 2"><g id="Слой_1-2" data-name="Слой 1"><polygon class="cls-1" points="4.5 62.95 4.5 24.45 37.85 5.2 71.19 24.45 71.19 62.95 37.85 82.21 4.5 62.95"/><path class="cls-2" d="M37.85,10.39,66.69,27.05V60.36L37.85,77,9,60.36V27.05L37.85,10.39M37.85,0l-4.5,2.6L4.5,19.25,0,21.85v43.7l4.5,2.6L33.35,84.8l4.5,2.6,4.5-2.6L71.19,68.15l4.5-2.6V21.85l-4.5-2.6L42.35,2.6,37.85,0Z"/><polygon class="cls-2" points="46.37 25.75 27.65 25.75 27.65 44.75 33.52 46.7 39.94 42.86 42.04 44.47 42.04 53.13 40.78 54.8 27.65 49.78 27.65 56.06 41.2 61.65 48.04 55.09 48.04 40.98 40.2 35.6 33.94 40 33.94 31.34 46.37 31.34 46.37 25.75"/></g></g></svg>