<svg xmlns="http://www.w3.org/2000/svg" xmlns:xlink="http://www.w3.org/1999/xlink" viewBox="0 0 75.69 87.4"><defs><style>.cls-1{fill:url(#Безымянный_градиент_26);}.cls-2{fill:#fff;}</style><linearGradient id="Безымянный_градиент_26" x1="-87.41" y1="71.12" x2="-10.4" y2="71.12" gradientTransform="translate(108.96 92.6) rotate(90)" gradientUnits="userSpaceOnUse"><stop offset="0" stop-color="#649392"/><stop offset="1" stop-color="#6ce5e1"/></linearGradient></defs><title>Ресурс 255</title><g id="Слой_2" data-name="Слой 2"><g id="Слой_1-2" data-name="Слой 1"><polygon class="cls-1" points="4.5 62.95 4.5 24.45 37.85 5.2 71.19 24.45 71.19 62.95 37.85 82.21 4.5 62.95"/><path class="cls-2" d="M37.85,10.39,66.69,27.05V60.36L37.85,77,9,60.36V27.05L37.85,10.39M37.85,0l-4.5,2.6L4.5,19.25,0,21.85v43.7l4.5,2.6L33.35,84.8l4.5,2.6,4.5-2.6L71.19,68.15l4.5-2.6V21.85l-4.5-2.6L42.35,2.6,37.85,0Z"/><polygon class="cls-2" points="20.93 34.46 20.93 28.2 24.71 26.24 30.97 30.35 30.97 54.67 34.89 54.67 34.89 59.76 20.93 59.76 20.93 54.67 25.23 54.67 25.23 32.11 20.93 34.46"/><path class="cls-2" d="M42,26.24,35.7,32.1V45.7L42.9,51l6.27-4.13L49,52.1,46.37,55l-8.8-2.53v6l9.73,2.66,7.46-7.33V31Zm7.2,14.26-5.74,3.87-2-1.09V33.84L43,32.1l6.14,2.8Z"/></g></g></svg>