<svg xmlns="http://www.w3.org/2000/svg" xmlns:xlink="http://www.w3.org/1999/xlink" viewBox="0 0 75.69 87.4"><defs><style>.cls-1{fill:url(#Безымянный_градиент_56);}.cls-2{fill:#fff;}</style><linearGradient id="Безымянный_градиент_56" x1="4.5" y1="43.7" x2="71.19" y2="43.7" gradientUnits="userSpaceOnUse"><stop offset="0" stop-color="#d6ad47"/><stop offset="1" stop-color="#bf7e30"/></linearGradient></defs><title>Ресурс 235</title><g id="Слой_2" data-name="Слой 2"><g id="Слой_1-2" data-name="Слой 1"><polygon class="cls-1" points="4.5 62.95 4.5 24.45 37.85 5.2 71.19 24.45 71.19 62.95 37.85 82.21 4.5 62.95"/><path class="cls-2" d="M37.85,10.39,66.69,27.05V60.36L37.85,77,9,60.36V27.05L37.85,10.39M37.85,0l-4.5,2.6L4.5,19.25,0,21.85v43.7l4.5,2.6L33.35,84.8l4.5,2.6,4.5-2.6L71.19,68.15l4.5-2.6V21.85l-4.5-2.6L42.35,2.6,37.85,0Z"/><polygon class="cls-2" points="15.92 32.54 15.92 27.69 34.77 27.69 34.77 35.68 26.52 40.13 34.77 42.88 34.77 54.41 26 61.35 15.92 57.03 15.92 51.13 25.34 55.06 29.01 52.18 29.01 46.55 20.11 43.02 20.11 37.12 29.67 32.8 15.92 32.54"/><path class="cls-2" d="M55.93,42l3.19-1.06V30.29L48.91,26.05l-10.2,4.24v9.94l4.37,2.12-5.17,2.26V56l11,4.77,10.87-4.64V43.74ZM44.41,33.47l4.43-1.59L53.42,34v3.45l-4.58,1.72-4.43-2.52Zm9.67,19.35-4.51,1.86L43.74,52V47.65l5.83-2.25,4.51,2.25Z"/></g></g></svg>