<svg xmlns="http://www.w3.org/2000/svg" xmlns:xlink="http://www.w3.org/1999/xlink" viewBox="0 0 75.69 87.4"><defs><style>.cls-1{fill:url(#Безымянный_градиент_94);}.cls-2{fill:#fff;}</style><linearGradient id="Безымянный_градиент_94" x1="4.5" y1="43.7" x2="71.19" y2="43.7" gradientUnits="userSpaceOnUse"><stop offset="0" stop-color="#db1638"/><stop offset="0.99" stop-color="#db643a"/></linearGradient></defs><title>Ресурс 224</title><g id="Слой_2" data-name="Слой 2"><g id="Слой_1-2" data-name="Слой 1"><polygon class="cls-1" points="4.5 62.95 4.5 24.45 37.85 5.2 71.19 24.45 71.19 62.95 37.85 82.21 4.5 62.95"/><path class="cls-2" d="M37.85,10.39,66.69,27.05V60.36L37.85,77,9,60.36V27.05L37.85,10.39M37.85,0l-4.5,2.6L4.5,19.25,0,21.85v43.7l4.5,2.6L33.35,84.8l4.5,2.6,4.5-2.6L71.19,68.15l4.5-2.6V21.85l-4.5-2.6L42.35,2.6,37.85,0Z"/><path class="cls-2" d="M54,26.52H43.37l-6.06,6.82V52L43.12,59H53.47L59.53,52V33.34Zm-.13,23.74-3,3.54H46.27l-3.41-3.67V35.55l3.67-4.24h3.91l3.41,4.24Z"/><polygon class="cls-2" points="33.1 28.39 16.16 28.39 16.16 45.59 21.47 47.36 27.29 43.88 29.18 45.33 29.18 53.17 28.05 54.69 16.16 50.14 16.16 55.83 28.43 60.89 34.62 54.94 34.62 42.17 27.52 37.3 21.85 41.29 21.85 33.45 33.1 33.45 33.1 28.39"/></g></g></svg>