<svg xmlns="http://www.w3.org/2000/svg" xmlns:xlink="http://www.w3.org/1999/xlink" viewBox="0 0 75.69 87.4"><defs><style>.cls-1{fill:url(#Безымянный_градиент_32);}.cls-2{fill:#fff;}</style><linearGradient id="Безымянный_градиент_32" x1="478.56" y1="429.16" x2="555.57" y2="429.16" gradientTransform="translate(467.01 -473.36) rotate(90)" gradientUnits="userSpaceOnUse"><stop offset="0" stop-color="#7dba80"/><stop offset="1" stop-color="#428956"/></linearGradient></defs><title>Ресурс 253</title><g id="Слой_2" data-name="Слой 2"><g id="Слой_1-2" data-name="Слой 1"><polygon class="cls-1" points="4.5 62.95 4.5 24.45 37.85 5.2 71.19 24.45 71.19 62.95 37.85 82.21 4.5 62.95"/><path class="cls-2" d="M37.85,10.39,66.69,27.05V60.36L37.85,77,9,60.36V27.05L37.85,10.39M37.85,0l-4.5,2.6L4.5,19.25,0,21.85v43.7l4.5,2.6L33.35,84.81l4.5,2.59,4.5-2.59L71.19,68.15l4.5-2.6V21.85l-4.5-2.6L42.35,2.6,37.85,0Z"/><polygon class="cls-2" points="20.68 38.67 20.68 32.78 30.87 26.61 39.85 32.64 39.85 43.1 26.04 53.82 27.25 55.83 39.85 55.83 39.85 60.79 23.63 60.79 19.21 52.75 34.22 40.95 34.22 35.86 30.2 33.05 20.68 38.67"/><polygon class="cls-2" points="42.53 35.16 42.53 28.9 46.31 26.94 52.57 31.05 52.57 55.38 56.49 55.38 56.49 60.46 42.53 60.46 42.53 55.38 46.83 55.38 46.83 32.81 42.53 35.16"/></g></g></svg>