<svg xmlns="http://www.w3.org/2000/svg" xmlns:xlink="http://www.w3.org/1999/xlink" viewBox="0 0 75.69 87.4"><defs><style>.cls-1{fill:url(#Безымянный_градиент_26);}.cls-2{fill:#fff;}</style><linearGradient id="Безымянный_градиент_26" x1="-87.41" y1="71.12" x2="-10.4" y2="71.12" gradientTransform="translate(108.96 92.6) rotate(90)" gradientUnits="userSpaceOnUse"><stop offset="0" stop-color="#649392"/><stop offset="1" stop-color="#6ce5e1"/></linearGradient></defs><title>Ресурс 258</title><g id="Слой_2" data-name="Слой 2"><g id="Слой_1-2" data-name="Слой 1"><polygon class="cls-1" points="4.5 62.95 4.5 24.45 37.85 5.2 71.19 24.45 71.19 62.95 37.85 82.21 4.5 62.95"/><path class="cls-2" d="M37.85,10.39,66.69,27.05V60.36L37.85,77,9,60.36V27.05L37.85,10.39M37.85,0l-4.5,2.6L4.5,19.25,0,21.85v43.7l4.5,2.6L33.35,84.8l4.5,2.6,4.5-2.6L71.19,68.15l4.5-2.6V21.85l-4.5-2.6L42.35,2.6,37.85,0Z"/><polygon class="cls-2" points="20.35 34.66 20.35 28.4 24.13 26.44 30.39 30.55 30.39 54.88 34.3 54.88 34.3 59.96 20.35 59.96 20.35 54.88 24.65 54.88 24.65 32.31 20.35 34.66"/><path class="cls-2" d="M48.45,37.08l-6.13,4.09v-5l2.43-2.69,8.68,1.92-.13-5.36L43.85,27.5,36.7,34.65V56.24L49.09,61l6.26-5.87v-13Zm1.4,16.09-1.53,1.41-6-2.3V47l5.36-3.21,2.17,1.42Z"/></g></g></svg>