<svg xmlns="http://www.w3.org/2000/svg" xmlns:xlink="http://www.w3.org/1999/xlink" viewBox="0 0 75.69 87.4"><defs><style>.cls-1{fill:url(#Безымянный_градиент_51);}.cls-2{fill:#fff;}</style><linearGradient id="Безымянный_градиент_51" x1="582.77" y1="328.85" x2="659.78" y2="328.85" gradientTransform="translate(366.69 -577.57) rotate(90)" gradientUnits="userSpaceOnUse"><stop offset="0" stop-color="#e0d465"/><stop offset="1" stop-color="#afa137"/></linearGradient></defs><title>Ресурс 243</title><g id="Слой_2" data-name="Слой 2"><g id="Слой_1-2" data-name="Слой 1"><polygon class="cls-1" points="4.5 62.95 4.5 24.45 37.85 5.2 71.19 24.45 71.19 62.95 37.85 82.21 4.5 62.95"/><path class="cls-2" d="M37.85,10.39,66.69,27.05V60.36L37.85,77,9,60.36V27.05L37.85,10.39M37.85,0l-4.5,2.6L4.5,19.25,0,21.85v43.7l4.5,2.6L33.35,84.8l4.5,2.6,4.5-2.6L71.19,68.15l4.5-2.6V21.85l-4.5-2.6L42.35,2.6,37.85,0Z"/><polygon class="cls-2" points="19.64 32.32 19.64 27.47 38.49 27.47 38.49 35.46 30.24 39.91 38.49 42.66 38.49 54.19 29.72 61.13 19.64 56.81 19.64 50.91 29.07 54.84 32.73 51.96 32.73 46.33 23.83 42.8 23.83 36.9 33.39 32.58 19.64 32.32"/><polygon class="cls-2" points="42.1 34.49 42.1 28.23 45.88 26.27 52.14 30.38 52.14 54.71 56.06 54.71 56.06 59.8 42.1 59.8 42.1 54.71 46.41 54.71 46.41 32.14 42.1 34.49"/></g></g></svg>