<svg xmlns="http://www.w3.org/2000/svg" xmlns:xlink="http://www.w3.org/1999/xlink" viewBox="0 0 75.69 87.4"><defs><style>.cls-1{fill:url(#Безымянный_градиент_51);}.cls-2{fill:#fff;}</style><linearGradient id="Безымянный_градиент_51" x1="214.31" y1="-41.54" x2="291.33" y2="-41.54" gradientTransform="translate(-3.7 -209.12) rotate(90)" gradientUnits="userSpaceOnUse"><stop offset="0" stop-color="#e0d465"/><stop offset="1" stop-color="#afa137"/></linearGradient></defs><title>Ресурс 239</title><g id="Слой_2" data-name="Слой 2"><g id="Слой_1-2" data-name="Слой 1"><polygon class="cls-1" points="4.5 62.95 4.5 24.45 37.85 5.2 71.19 24.45 71.19 62.95 37.85 82.21 4.5 62.95"/><path class="cls-2" d="M37.85,10.39,66.69,27.05V60.36L37.85,77,9,60.36V27.05L37.85,10.39M37.85,0l-4.5,2.6L4.5,19.25,0,21.85v43.7l4.5,2.6L33.35,84.8l4.5,2.6,4.5-2.6L71.19,68.15l4.5-2.6V21.85l-4.5-2.6L42.35,2.6,37.85,0Z"/><polygon class="cls-2" points="17 31.72 17 26.87 35.86 26.87 35.86 34.86 27.61 39.31 35.86 42.06 35.86 53.59 27.09 60.53 17 56.21 17 50.31 26.43 54.24 30.1 51.36 30.1 45.73 21.2 42.2 21.2 36.3 30.76 31.98 17 31.72"/><polygon class="cls-2" points="57.17 27.58 40.23 27.58 40.23 44.78 45.54 46.55 51.35 43.07 53.25 44.52 53.25 52.37 52.11 53.88 40.23 49.33 40.23 55.02 52.49 60.08 58.69 54.14 58.69 41.36 51.59 36.49 45.92 40.48 45.92 32.64 57.17 32.64 57.17 27.58"/></g></g></svg>